<svg xmlns="http://www.w3.org/2000/svg" version="1.1" xmlns:xlink="http://www.w3.org/1999/xlink" xmlns:svgjs="http://svgjs.com/svgjs" width="1920" height="1080" preserveAspectRatio="none" viewBox="0 0 1920 1080"><g mask="url(&quot;#SvgjsMask1010&quot;)" fill="none"><path d="M72.66 60.42L135.88 96.92L135.88 169.92L72.66 206.42L9.44 169.92L9.44 96.92zM135.88 388.92L199.1 425.42L199.1 498.42L135.88 534.92L72.66 498.42L72.66 425.42zM135.88 826.92L199.1 863.42L199.1 936.42L135.88 972.92L72.66 936.42L72.66 863.42zM199.1 936.42L262.33 972.92L262.33 1045.92L199.1 1082.42L135.88 1045.92L135.88 972.92zM325.55 498.42L388.77 534.92L388.77 607.92L325.55 644.42L262.33 607.92L262.33 534.92zM262.33 607.92L325.55 644.42L325.55 717.42L262.33 753.92L199.1 717.42L199.1 644.42zM325.55 717.42L388.77 753.92L388.77 826.92L325.55 863.42L262.33 826.92L262.33 753.92zM262.33 1045.92L325.55 1082.42L325.55 1155.42L262.33 1191.92L199.1 1155.42L199.1 1082.42zM451.99 717.42L515.21 753.92L515.21 826.92L451.99 863.42L388.77 826.92L388.77 753.92zM515.21 -49.08L578.43 -12.58L578.43 60.42L515.21 96.92L451.99 60.42L451.99 -12.58zM578.43 60.42L641.66 96.92L641.66 169.92L578.43 206.42L515.21 169.92L515.21 96.92zM515.21 169.92L578.43 206.42L578.43 279.42L515.21 315.92L451.99 279.42L451.99 206.42zM515.21 826.92L578.43 863.42L578.43 936.42L515.21 972.92L451.99 936.42L451.99 863.42zM704.88 498.42L768.1 534.92L768.1 607.92L704.88 644.42L641.66 607.92L641.66 534.92zM641.66 607.92L704.88 644.42L704.88 717.42L641.66 753.92L578.43 717.42L578.43 644.42zM704.88 936.42L768.1 972.92L768.1 1045.92L704.88 1082.42L641.66 1045.92L641.66 972.92zM641.66 1045.92L704.88 1082.42L704.88 1155.42L641.66 1191.92L578.43 1155.42L578.43 1082.42zM831.32 60.42L894.54 96.92L894.54 169.92L831.32 206.42L768.1 169.92L768.1 96.92zM768.1 826.92L831.32 863.42L831.32 936.42L768.1 972.92L704.88 936.42L704.88 863.42zM957.76 498.42L1020.99 534.92L1020.99 607.92L957.76 644.42L894.54 607.92L894.54 534.92zM894.54 1045.92L957.76 1082.42L957.76 1155.42L894.54 1191.92L831.32 1155.42L831.32 1082.42zM1147.43 1045.92L1210.65 1082.42L1210.65 1155.42L1147.43 1191.92L1084.21 1155.42L1084.21 1082.42zM1273.87 169.92L1337.09 206.42L1337.09 279.42L1273.87 315.92L1210.65 279.42L1210.65 206.42zM1337.09 279.42L1400.32 315.92L1400.32 388.92L1337.09 425.42L1273.87 388.92L1273.87 315.92zM1337.09 717.42L1400.32 753.92L1400.32 826.92L1337.09 863.42L1273.87 826.92L1273.87 753.92zM1400.32 -49.08L1463.54 -12.58L1463.54 60.42L1400.32 96.92L1337.09 60.42L1337.09 -12.58zM1400.32 388.92L1463.54 425.42L1463.54 498.42L1400.32 534.92L1337.09 498.42L1337.09 425.42zM1463.54 936.42L1526.76 972.92L1526.76 1045.92L1463.54 1082.42L1400.32 1045.92L1400.32 972.92zM1589.98 60.42L1653.2 96.92L1653.2 169.92L1589.98 206.42L1526.76 169.92L1526.76 96.92zM1589.98 279.42L1653.2 315.92L1653.2 388.92L1589.98 425.42L1526.76 388.92L1526.76 315.92zM1526.76 1045.92L1589.98 1082.42L1589.98 1155.42L1526.76 1191.92L1463.54 1155.42L1463.54 1082.42zM1653.2 -49.08L1716.42 -12.58L1716.42 60.42L1653.2 96.92L1589.98 60.42L1589.98 -12.58zM1716.42 498.42L1779.65 534.92L1779.65 607.92L1716.42 644.42L1653.2 607.92L1653.2 534.92zM1716.42 717.42L1779.65 753.92L1779.65 826.92L1716.42 863.42L1653.2 826.92L1653.2 753.92zM1653.2 826.92L1716.42 863.42L1716.42 936.42L1653.2 972.92L1589.98 936.42L1589.98 863.42zM1716.42 936.42L1779.65 972.92L1779.65 1045.92L1716.42 1082.42L1653.2 1045.92L1653.2 972.92zM1906.09 607.92L1969.31 644.42L1969.31 717.42L1906.09 753.92L1842.87 717.42L1842.87 644.42zM1969.31 936.42L2032.53 972.92L2032.53 1045.92L1969.31 1082.42L1906.09 1045.92L1906.09 972.92z" stroke="url(#SvgjsLinearGradient1011)" stroke-width="2"></path><path d="M65.36 60.42 a7.3 7.3 0 1 0 14.6 0 a7.3 7.3 0 1 0 -14.6 0zM128.58 96.92 a7.3 7.3 0 1 0 14.6 0 a7.3 7.3 0 1 0 -14.6 0zM128.58 169.92 a7.3 7.3 0 1 0 14.6 0 a7.3 7.3 0 1 0 -14.6 0zM65.36 206.42 a7.3 7.3 0 1 0 14.6 0 a7.3 7.3 0 1 0 -14.6 0zM2.14 169.92 a7.3 7.3 0 1 0 14.6 0 a7.3 7.3 0 1 0 -14.6 0zM2.14 96.92 a7.3 7.3 0 1 0 14.6 0 a7.3 7.3 0 1 0 -14.6 0zM128.58 388.92 a7.3 7.3 0 1 0 14.6 0 a7.3 7.3 0 1 0 -14.6 0zM191.8 425.42 a7.3 7.3 0 1 0 14.6 0 a7.3 7.3 0 1 0 -14.6 0zM191.8 498.42 a7.3 7.3 0 1 0 14.6 0 a7.3 7.3 0 1 0 -14.6 0zM128.58 534.92 a7.3 7.3 0 1 0 14.6 0 a7.3 7.3 0 1 0 -14.6 0zM65.36 498.42 a7.3 7.3 0 1 0 14.6 0 a7.3 7.3 0 1 0 -14.6 0zM65.36 425.42 a7.3 7.3 0 1 0 14.6 0 a7.3 7.3 0 1 0 -14.6 0zM128.58 826.92 a7.3 7.3 0 1 0 14.6 0 a7.3 7.3 0 1 0 -14.6 0zM191.8 863.42 a7.3 7.3 0 1 0 14.6 0 a7.3 7.3 0 1 0 -14.6 0zM191.8 936.42 a7.3 7.3 0 1 0 14.6 0 a7.3 7.3 0 1 0 -14.6 0zM128.58 972.92 a7.3 7.3 0 1 0 14.6 0 a7.3 7.3 0 1 0 -14.6 0zM65.36 936.42 a7.3 7.3 0 1 0 14.6 0 a7.3 7.3 0 1 0 -14.6 0zM65.36 863.42 a7.3 7.3 0 1 0 14.6 0 a7.3 7.3 0 1 0 -14.6 0zM255.03 972.92 a7.3 7.3 0 1 0 14.6 0 a7.3 7.3 0 1 0 -14.6 0zM255.03 1045.92 a7.3 7.3 0 1 0 14.6 0 a7.3 7.3 0 1 0 -14.6 0zM191.8 1082.42 a7.3 7.3 0 1 0 14.6 0 a7.3 7.3 0 1 0 -14.6 0zM128.58 1045.92 a7.3 7.3 0 1 0 14.6 0 a7.3 7.3 0 1 0 -14.6 0zM318.25 498.42 a7.3 7.3 0 1 0 14.6 0 a7.3 7.3 0 1 0 -14.6 0zM381.47 534.92 a7.3 7.3 0 1 0 14.6 0 a7.3 7.3 0 1 0 -14.6 0zM381.47 607.92 a7.3 7.3 0 1 0 14.6 0 a7.3 7.3 0 1 0 -14.6 0zM318.25 644.42 a7.3 7.3 0 1 0 14.6 0 a7.3 7.3 0 1 0 -14.6 0zM255.03 607.92 a7.3 7.3 0 1 0 14.6 0 a7.3 7.3 0 1 0 -14.6 0zM255.03 534.92 a7.3 7.3 0 1 0 14.6 0 a7.3 7.3 0 1 0 -14.6 0zM318.25 717.42 a7.3 7.3 0 1 0 14.6 0 a7.3 7.3 0 1 0 -14.6 0zM255.03 753.92 a7.3 7.3 0 1 0 14.6 0 a7.3 7.3 0 1 0 -14.6 0zM191.8 717.42 a7.3 7.3 0 1 0 14.6 0 a7.3 7.3 0 1 0 -14.6 0zM191.8 644.42 a7.3 7.3 0 1 0 14.6 0 a7.3 7.3 0 1 0 -14.6 0zM381.47 753.92 a7.3 7.3 0 1 0 14.6 0 a7.3 7.3 0 1 0 -14.6 0zM381.47 826.92 a7.3 7.3 0 1 0 14.6 0 a7.3 7.3 0 1 0 -14.6 0zM318.25 863.42 a7.3 7.3 0 1 0 14.6 0 a7.3 7.3 0 1 0 -14.6 0zM255.03 826.92 a7.3 7.3 0 1 0 14.6 0 a7.3 7.3 0 1 0 -14.6 0zM318.25 1082.42 a7.3 7.3 0 1 0 14.6 0 a7.3 7.3 0 1 0 -14.6 0zM318.25 1155.42 a7.3 7.3 0 1 0 14.6 0 a7.3 7.3 0 1 0 -14.6 0zM255.03 1191.92 a7.3 7.3 0 1 0 14.6 0 a7.3 7.3 0 1 0 -14.6 0zM191.8 1155.42 a7.3 7.3 0 1 0 14.6 0 a7.3 7.3 0 1 0 -14.6 0zM444.69 717.42 a7.3 7.3 0 1 0 14.6 0 a7.3 7.3 0 1 0 -14.6 0zM507.91 753.92 a7.3 7.3 0 1 0 14.6 0 a7.3 7.3 0 1 0 -14.6 0zM507.91 826.92 a7.3 7.3 0 1 0 14.6 0 a7.3 7.3 0 1 0 -14.6 0zM444.69 863.42 a7.3 7.3 0 1 0 14.6 0 a7.3 7.3 0 1 0 -14.6 0zM507.91 -49.08 a7.3 7.3 0 1 0 14.6 0 a7.3 7.3 0 1 0 -14.6 0zM571.13 -12.58 a7.3 7.3 0 1 0 14.6 0 a7.3 7.3 0 1 0 -14.6 0zM571.13 60.42 a7.3 7.3 0 1 0 14.6 0 a7.3 7.3 0 1 0 -14.6 0zM507.91 96.92 a7.3 7.3 0 1 0 14.6 0 a7.3 7.3 0 1 0 -14.6 0zM444.69 60.42 a7.3 7.3 0 1 0 14.6 0 a7.3 7.3 0 1 0 -14.6 0zM444.69 -12.58 a7.3 7.3 0 1 0 14.6 0 a7.3 7.3 0 1 0 -14.6 0zM634.36 96.92 a7.3 7.3 0 1 0 14.6 0 a7.3 7.3 0 1 0 -14.6 0zM634.36 169.92 a7.3 7.3 0 1 0 14.6 0 a7.3 7.3 0 1 0 -14.6 0zM571.13 206.42 a7.3 7.3 0 1 0 14.6 0 a7.3 7.3 0 1 0 -14.6 0zM507.91 169.92 a7.3 7.3 0 1 0 14.6 0 a7.3 7.3 0 1 0 -14.6 0zM571.13 279.42 a7.3 7.3 0 1 0 14.6 0 a7.3 7.3 0 1 0 -14.6 0zM507.91 315.92 a7.3 7.3 0 1 0 14.6 0 a7.3 7.3 0 1 0 -14.6 0zM444.69 279.42 a7.3 7.3 0 1 0 14.6 0 a7.3 7.3 0 1 0 -14.6 0zM444.69 206.42 a7.3 7.3 0 1 0 14.6 0 a7.3 7.3 0 1 0 -14.6 0zM571.13 863.42 a7.3 7.3 0 1 0 14.6 0 a7.3 7.3 0 1 0 -14.6 0zM571.13 936.42 a7.3 7.3 0 1 0 14.6 0 a7.3 7.3 0 1 0 -14.6 0zM507.91 972.92 a7.3 7.3 0 1 0 14.6 0 a7.3 7.3 0 1 0 -14.6 0zM444.69 936.42 a7.3 7.3 0 1 0 14.6 0 a7.3 7.3 0 1 0 -14.6 0zM697.58 498.42 a7.3 7.3 0 1 0 14.6 0 a7.3 7.3 0 1 0 -14.6 0zM760.8 534.92 a7.3 7.3 0 1 0 14.6 0 a7.3 7.3 0 1 0 -14.6 0zM760.8 607.92 a7.3 7.3 0 1 0 14.6 0 a7.3 7.3 0 1 0 -14.6 0zM697.58 644.42 a7.3 7.3 0 1 0 14.6 0 a7.3 7.3 0 1 0 -14.6 0zM634.36 607.92 a7.3 7.3 0 1 0 14.6 0 a7.3 7.3 0 1 0 -14.6 0zM634.36 534.92 a7.3 7.3 0 1 0 14.6 0 a7.3 7.3 0 1 0 -14.6 0zM697.58 717.42 a7.3 7.3 0 1 0 14.6 0 a7.3 7.3 0 1 0 -14.6 0zM634.36 753.92 a7.3 7.3 0 1 0 14.6 0 a7.3 7.3 0 1 0 -14.6 0zM571.13 717.42 a7.3 7.3 0 1 0 14.6 0 a7.3 7.3 0 1 0 -14.6 0zM571.13 644.42 a7.3 7.3 0 1 0 14.6 0 a7.3 7.3 0 1 0 -14.6 0zM697.58 936.42 a7.3 7.3 0 1 0 14.6 0 a7.3 7.3 0 1 0 -14.6 0zM760.8 972.92 a7.3 7.3 0 1 0 14.6 0 a7.3 7.3 0 1 0 -14.6 0zM760.8 1045.92 a7.3 7.3 0 1 0 14.6 0 a7.3 7.3 0 1 0 -14.6 0zM697.58 1082.42 a7.3 7.3 0 1 0 14.6 0 a7.3 7.3 0 1 0 -14.6 0zM634.36 1045.92 a7.3 7.3 0 1 0 14.6 0 a7.3 7.3 0 1 0 -14.6 0zM634.36 972.92 a7.3 7.3 0 1 0 14.6 0 a7.3 7.3 0 1 0 -14.6 0zM697.58 1155.42 a7.3 7.3 0 1 0 14.6 0 a7.3 7.3 0 1 0 -14.6 0zM634.36 1191.92 a7.3 7.3 0 1 0 14.6 0 a7.3 7.3 0 1 0 -14.6 0zM571.13 1155.42 a7.3 7.3 0 1 0 14.6 0 a7.3 7.3 0 1 0 -14.6 0zM571.13 1082.42 a7.3 7.3 0 1 0 14.6 0 a7.3 7.3 0 1 0 -14.6 0zM824.02 60.42 a7.3 7.3 0 1 0 14.6 0 a7.3 7.3 0 1 0 -14.6 0zM887.24 96.92 a7.3 7.3 0 1 0 14.6 0 a7.3 7.3 0 1 0 -14.6 0zM887.24 169.92 a7.3 7.3 0 1 0 14.6 0 a7.3 7.3 0 1 0 -14.6 0zM824.02 206.42 a7.3 7.3 0 1 0 14.6 0 a7.3 7.3 0 1 0 -14.6 0zM760.8 169.92 a7.3 7.3 0 1 0 14.6 0 a7.3 7.3 0 1 0 -14.6 0zM760.8 96.92 a7.3 7.3 0 1 0 14.6 0 a7.3 7.3 0 1 0 -14.6 0zM760.8 826.92 a7.3 7.3 0 1 0 14.6 0 a7.3 7.3 0 1 0 -14.6 0zM824.02 863.42 a7.3 7.3 0 1 0 14.6 0 a7.3 7.3 0 1 0 -14.6 0zM824.02 936.42 a7.3 7.3 0 1 0 14.6 0 a7.3 7.3 0 1 0 -14.6 0zM697.58 863.42 a7.3 7.3 0 1 0 14.6 0 a7.3 7.3 0 1 0 -14.6 0zM950.46 498.42 a7.3 7.3 0 1 0 14.6 0 a7.3 7.3 0 1 0 -14.6 0zM1013.69 534.92 a7.3 7.3 0 1 0 14.6 0 a7.3 7.3 0 1 0 -14.6 0zM1013.69 607.92 a7.3 7.3 0 1 0 14.6 0 a7.3 7.3 0 1 0 -14.6 0zM950.46 644.42 a7.3 7.3 0 1 0 14.6 0 a7.3 7.3 0 1 0 -14.6 0zM887.24 607.92 a7.3 7.3 0 1 0 14.6 0 a7.3 7.3 0 1 0 -14.6 0zM887.24 534.92 a7.3 7.3 0 1 0 14.6 0 a7.3 7.3 0 1 0 -14.6 0zM887.24 1045.92 a7.3 7.3 0 1 0 14.6 0 a7.3 7.3 0 1 0 -14.6 0zM950.46 1082.42 a7.3 7.3 0 1 0 14.6 0 a7.3 7.3 0 1 0 -14.6 0zM950.46 1155.42 a7.3 7.3 0 1 0 14.6 0 a7.3 7.3 0 1 0 -14.6 0zM887.24 1191.92 a7.3 7.3 0 1 0 14.6 0 a7.3 7.3 0 1 0 -14.6 0zM824.02 1155.42 a7.3 7.3 0 1 0 14.6 0 a7.3 7.3 0 1 0 -14.6 0zM824.02 1082.42 a7.3 7.3 0 1 0 14.6 0 a7.3 7.3 0 1 0 -14.6 0zM1140.13 1045.92 a7.3 7.3 0 1 0 14.6 0 a7.3 7.3 0 1 0 -14.6 0zM1203.35 1082.42 a7.3 7.3 0 1 0 14.6 0 a7.3 7.3 0 1 0 -14.6 0zM1203.35 1155.42 a7.3 7.3 0 1 0 14.6 0 a7.3 7.3 0 1 0 -14.6 0zM1140.13 1191.92 a7.3 7.3 0 1 0 14.6 0 a7.3 7.3 0 1 0 -14.6 0zM1076.91 1155.42 a7.3 7.3 0 1 0 14.6 0 a7.3 7.3 0 1 0 -14.6 0zM1076.91 1082.42 a7.3 7.3 0 1 0 14.6 0 a7.3 7.3 0 1 0 -14.6 0zM1266.57 169.92 a7.3 7.3 0 1 0 14.6 0 a7.3 7.3 0 1 0 -14.6 0zM1329.79 206.42 a7.3 7.3 0 1 0 14.6 0 a7.3 7.3 0 1 0 -14.6 0zM1329.79 279.42 a7.3 7.3 0 1 0 14.6 0 a7.3 7.3 0 1 0 -14.6 0zM1266.57 315.92 a7.3 7.3 0 1 0 14.6 0 a7.3 7.3 0 1 0 -14.6 0zM1203.35 279.42 a7.3 7.3 0 1 0 14.6 0 a7.3 7.3 0 1 0 -14.6 0zM1203.35 206.42 a7.3 7.3 0 1 0 14.6 0 a7.3 7.3 0 1 0 -14.6 0zM1393.02 315.92 a7.3 7.3 0 1 0 14.6 0 a7.3 7.3 0 1 0 -14.6 0zM1393.02 388.92 a7.3 7.3 0 1 0 14.6 0 a7.3 7.3 0 1 0 -14.6 0zM1329.79 425.42 a7.3 7.3 0 1 0 14.6 0 a7.3 7.3 0 1 0 -14.6 0zM1266.57 388.92 a7.3 7.3 0 1 0 14.6 0 a7.3 7.3 0 1 0 -14.6 0zM1329.79 717.42 a7.3 7.3 0 1 0 14.6 0 a7.3 7.3 0 1 0 -14.6 0zM1393.02 753.92 a7.3 7.3 0 1 0 14.6 0 a7.3 7.3 0 1 0 -14.6 0zM1393.02 826.92 a7.3 7.3 0 1 0 14.6 0 a7.3 7.3 0 1 0 -14.6 0zM1329.79 863.42 a7.3 7.3 0 1 0 14.6 0 a7.3 7.3 0 1 0 -14.6 0zM1266.57 826.92 a7.3 7.3 0 1 0 14.6 0 a7.3 7.3 0 1 0 -14.6 0zM1266.57 753.92 a7.3 7.3 0 1 0 14.6 0 a7.3 7.3 0 1 0 -14.6 0zM1393.02 -49.08 a7.3 7.3 0 1 0 14.6 0 a7.3 7.3 0 1 0 -14.6 0zM1456.24 -12.58 a7.3 7.3 0 1 0 14.6 0 a7.3 7.3 0 1 0 -14.6 0zM1456.24 60.42 a7.3 7.3 0 1 0 14.6 0 a7.3 7.3 0 1 0 -14.6 0zM1393.02 96.92 a7.3 7.3 0 1 0 14.6 0 a7.3 7.3 0 1 0 -14.6 0zM1329.79 60.42 a7.3 7.3 0 1 0 14.6 0 a7.3 7.3 0 1 0 -14.6 0zM1329.79 -12.58 a7.3 7.3 0 1 0 14.6 0 a7.3 7.3 0 1 0 -14.6 0zM1456.24 425.42 a7.3 7.3 0 1 0 14.6 0 a7.3 7.3 0 1 0 -14.6 0zM1456.24 498.42 a7.3 7.3 0 1 0 14.6 0 a7.3 7.3 0 1 0 -14.6 0zM1393.02 534.92 a7.3 7.3 0 1 0 14.6 0 a7.3 7.3 0 1 0 -14.6 0zM1329.79 498.42 a7.3 7.3 0 1 0 14.6 0 a7.3 7.3 0 1 0 -14.6 0zM1456.24 936.42 a7.3 7.3 0 1 0 14.6 0 a7.3 7.3 0 1 0 -14.6 0zM1519.46 972.92 a7.3 7.3 0 1 0 14.6 0 a7.3 7.3 0 1 0 -14.6 0zM1519.46 1045.92 a7.3 7.3 0 1 0 14.6 0 a7.3 7.3 0 1 0 -14.6 0zM1456.24 1082.42 a7.3 7.3 0 1 0 14.6 0 a7.3 7.3 0 1 0 -14.6 0zM1393.02 1045.92 a7.3 7.3 0 1 0 14.6 0 a7.3 7.3 0 1 0 -14.6 0zM1393.02 972.92 a7.3 7.3 0 1 0 14.6 0 a7.3 7.3 0 1 0 -14.6 0zM1582.68 60.42 a7.3 7.3 0 1 0 14.6 0 a7.3 7.3 0 1 0 -14.6 0zM1645.9 96.92 a7.3 7.3 0 1 0 14.6 0 a7.3 7.3 0 1 0 -14.6 0zM1645.9 169.92 a7.3 7.3 0 1 0 14.6 0 a7.3 7.3 0 1 0 -14.6 0zM1582.68 206.42 a7.3 7.3 0 1 0 14.6 0 a7.3 7.3 0 1 0 -14.6 0zM1519.46 169.92 a7.3 7.3 0 1 0 14.6 0 a7.3 7.3 0 1 0 -14.6 0zM1519.46 96.92 a7.3 7.3 0 1 0 14.6 0 a7.3 7.3 0 1 0 -14.6 0zM1582.68 279.42 a7.3 7.3 0 1 0 14.6 0 a7.3 7.3 0 1 0 -14.6 0zM1645.9 315.92 a7.3 7.3 0 1 0 14.6 0 a7.3 7.3 0 1 0 -14.6 0zM1645.9 388.92 a7.3 7.3 0 1 0 14.6 0 a7.3 7.3 0 1 0 -14.6 0zM1582.68 425.42 a7.3 7.3 0 1 0 14.6 0 a7.3 7.3 0 1 0 -14.6 0zM1519.46 388.92 a7.3 7.3 0 1 0 14.6 0 a7.3 7.3 0 1 0 -14.6 0zM1519.46 315.92 a7.3 7.3 0 1 0 14.6 0 a7.3 7.3 0 1 0 -14.6 0zM1582.68 1082.42 a7.3 7.3 0 1 0 14.6 0 a7.3 7.3 0 1 0 -14.6 0zM1582.68 1155.42 a7.3 7.3 0 1 0 14.6 0 a7.3 7.3 0 1 0 -14.6 0zM1519.46 1191.92 a7.3 7.3 0 1 0 14.6 0 a7.3 7.3 0 1 0 -14.6 0zM1456.24 1155.42 a7.3 7.3 0 1 0 14.6 0 a7.3 7.3 0 1 0 -14.6 0zM1645.9 -49.08 a7.3 7.3 0 1 0 14.6 0 a7.3 7.3 0 1 0 -14.6 0zM1709.12 -12.58 a7.3 7.3 0 1 0 14.6 0 a7.3 7.3 0 1 0 -14.6 0zM1709.12 60.42 a7.3 7.3 0 1 0 14.6 0 a7.3 7.3 0 1 0 -14.6 0zM1582.68 -12.58 a7.3 7.3 0 1 0 14.6 0 a7.3 7.3 0 1 0 -14.6 0zM1709.12 498.42 a7.3 7.3 0 1 0 14.6 0 a7.3 7.3 0 1 0 -14.6 0zM1772.35 534.92 a7.3 7.3 0 1 0 14.6 0 a7.3 7.3 0 1 0 -14.6 0zM1772.35 607.92 a7.3 7.3 0 1 0 14.6 0 a7.3 7.3 0 1 0 -14.6 0zM1709.12 644.42 a7.3 7.3 0 1 0 14.6 0 a7.3 7.3 0 1 0 -14.6 0zM1645.9 607.92 a7.3 7.3 0 1 0 14.6 0 a7.3 7.3 0 1 0 -14.6 0zM1645.9 534.92 a7.3 7.3 0 1 0 14.6 0 a7.3 7.3 0 1 0 -14.6 0zM1709.12 717.42 a7.3 7.3 0 1 0 14.6 0 a7.3 7.3 0 1 0 -14.6 0zM1772.35 753.92 a7.3 7.3 0 1 0 14.6 0 a7.3 7.3 0 1 0 -14.6 0zM1772.35 826.92 a7.3 7.3 0 1 0 14.6 0 a7.3 7.3 0 1 0 -14.6 0zM1709.12 863.42 a7.3 7.3 0 1 0 14.6 0 a7.3 7.3 0 1 0 -14.6 0zM1645.9 826.92 a7.3 7.3 0 1 0 14.6 0 a7.3 7.3 0 1 0 -14.6 0zM1645.9 753.92 a7.3 7.3 0 1 0 14.6 0 a7.3 7.3 0 1 0 -14.6 0zM1709.12 936.42 a7.3 7.3 0 1 0 14.6 0 a7.3 7.3 0 1 0 -14.6 0zM1645.9 972.92 a7.3 7.3 0 1 0 14.6 0 a7.3 7.3 0 1 0 -14.6 0zM1582.68 936.42 a7.3 7.3 0 1 0 14.6 0 a7.3 7.3 0 1 0 -14.6 0zM1582.68 863.42 a7.3 7.3 0 1 0 14.6 0 a7.3 7.3 0 1 0 -14.6 0zM1772.35 972.92 a7.3 7.3 0 1 0 14.6 0 a7.3 7.3 0 1 0 -14.6 0zM1772.35 1045.92 a7.3 7.3 0 1 0 14.6 0 a7.3 7.3 0 1 0 -14.6 0zM1709.12 1082.42 a7.3 7.3 0 1 0 14.6 0 a7.3 7.3 0 1 0 -14.6 0zM1645.9 1045.92 a7.3 7.3 0 1 0 14.6 0 a7.3 7.3 0 1 0 -14.6 0zM1898.79 607.92 a7.3 7.3 0 1 0 14.6 0 a7.3 7.3 0 1 0 -14.6 0zM1962.01 644.42 a7.3 7.3 0 1 0 14.6 0 a7.3 7.3 0 1 0 -14.6 0zM1962.01 717.42 a7.3 7.3 0 1 0 14.6 0 a7.3 7.3 0 1 0 -14.6 0zM1898.79 753.92 a7.3 7.3 0 1 0 14.6 0 a7.3 7.3 0 1 0 -14.6 0zM1835.57 717.42 a7.3 7.3 0 1 0 14.6 0 a7.3 7.3 0 1 0 -14.6 0zM1835.57 644.42 a7.3 7.3 0 1 0 14.6 0 a7.3 7.3 0 1 0 -14.6 0zM1962.01 936.42 a7.3 7.3 0 1 0 14.6 0 a7.3 7.3 0 1 0 -14.6 0zM2025.23 972.92 a7.3 7.3 0 1 0 14.6 0 a7.3 7.3 0 1 0 -14.6 0zM2025.23 1045.92 a7.3 7.3 0 1 0 14.6 0 a7.3 7.3 0 1 0 -14.6 0zM1962.01 1082.42 a7.3 7.3 0 1 0 14.6 0 a7.3 7.3 0 1 0 -14.6 0zM1898.79 1045.92 a7.3 7.3 0 1 0 14.6 0 a7.3 7.3 0 1 0 -14.6 0zM1898.79 972.92 a7.3 7.3 0 1 0 14.6 0 a7.3 7.3 0 1 0 -14.6 0z" fill="url(#SvgjsLinearGradient1011)"></path></g><defs><mask id="SvgjsMask1010"><rect width="1920" height="1080" fill="#ffffff"></rect></mask><linearGradient x1="960" y1="1080" x2="960" y2="0" gradientUnits="userSpaceOnUse" id="SvgjsLinearGradient1011"><stop stop-color="rgba(88, 28, 154, 1)" offset="0"></stop><stop stop-color="rgba(0, 69, 158, 0)" offset="1"></stop></linearGradient></defs></svg>
