<?xml version="1.0" encoding="utf-8"?>
<!-- Generator: Adobe Illustrator 16.0.0, SVG Export Plug-In . SVG Version: 6.00 Build 0)  -->
<!DOCTYPE svg PUBLIC "-//W3C//DTD SVG 1.0//EN" "http://www.w3.org/TR/2001/REC-SVG-20010904/DTD/svg10.dtd">
<svg version="1.0" id="Calque_1" xmlns="http://www.w3.org/2000/svg" xmlns:xlink="http://www.w3.org/1999/xlink" x="0px" y="0px"
	 width="120px" height="120px" viewBox="0 0 283.46 170.08" enable-background="new 0 0 283.46 170.08" xml:space="preserve">
<g>
	<rect x="143.377" y="52.74" fill-rule="evenodd" clip-rule="evenodd" fill="none" width="133.29" height="37.594"/>
	<path d="M155.537,53.179c3.973,0,6.906,1.414,8.801,4.24c1.893,2.827,2.84,6.934,2.84,12.32c0,5.467-0.928,9.68-2.781,12.64
		s-4.807,4.44-8.859,4.44c-2,0-3.734-0.38-5.2-1.14c-1.467-0.76-2.681-1.866-3.64-3.32c-0.961-1.453-1.667-3.24-2.12-5.36
		c-0.454-2.12-0.681-4.54-0.681-7.26c0-5.466,0.947-9.593,2.84-12.38C148.63,54.573,151.563,53.179,155.537,53.179z M155.537,76.5
		c0.854,0,1.607-0.193,2.26-0.58c0.654-0.386,1.193-0.92,1.621-1.6c0.426-0.68,0.746-1.493,0.959-2.44
		c0.213-0.946,0.32-1.993,0.32-3.14c0-1.146-0.107-2.206-0.32-3.18c-0.213-0.973-0.533-1.82-0.959-2.54
		c-0.428-0.72-0.967-1.28-1.621-1.68c-0.652-0.4-1.406-0.6-2.26-0.6s-1.594,0.207-2.221,0.62c-0.627,0.414-1.16,0.98-1.6,1.7
		c-0.439,0.72-0.767,1.567-0.98,2.54c-0.213,0.974-0.319,2.02-0.319,3.14c0,1.147,0.106,2.194,0.319,3.14
		c0.214,0.947,0.541,1.76,0.98,2.44s0.973,1.214,1.6,1.6C153.943,76.306,154.684,76.5,155.537,76.5z"/>
	<path d="M168.178,57.62c-0.027-0.213-0.041-0.4-0.041-0.56c0-0.16,0-0.346,0-0.56c0-1.093,0.334-1.993,1-2.7
		c0.666-0.706,1.572-1.06,2.721-1.06c1.305,0,2.32,0.454,3.039,1.36c0.721,0.907,1.08,2.094,1.08,3.56c0,0.88-0.133,1.747-0.4,2.6
		c-0.266,0.854-0.646,1.654-1.139,2.4c-0.494,0.747-1.102,1.427-1.82,2.04c-0.721,0.614-1.52,1.107-2.4,1.48l-1.68-1.48
		c0.746-0.533,1.326-1.153,1.74-1.86c0.412-0.706,0.619-1.406,0.619-2.1c0-0.72-0.234-1.366-0.699-1.94
		C169.73,58.226,169.057,57.833,168.178,57.62z"/>
	<path d="M177.217,52.739h5.68v11.72c0.721-0.693,1.566-1.273,2.539-1.74c0.975-0.466,2.008-0.7,3.102-0.7
		c1.252,0,2.42,0.327,3.5,0.98c1.08,0.654,2.012,1.56,2.799,2.72c0.787,1.16,1.406,2.527,1.861,4.1
		c0.453,1.574,0.68,3.267,0.68,5.08c0,1.734-0.215,3.333-0.641,4.8c-0.428,1.467-1.006,2.727-1.74,3.78
		c-0.734,1.054-1.607,1.874-2.619,2.46c-1.014,0.586-2.121,0.88-3.32,0.88c-1.014,0-2.055-0.207-3.121-0.62s-2.08-1.006-3.039-1.78
		v1.959h-5.48L177.217,52.739z M182.896,71.939c0,1.094,0.301,1.974,0.9,2.64s1.365,1,2.299,1c1.014,0,1.873-0.36,2.58-1.08
		c0.707-0.72,1.061-1.64,1.061-2.76c0-0.506-0.086-0.986-0.26-1.44c-0.174-0.453-0.42-0.846-0.74-1.18s-0.688-0.593-1.1-0.78
		c-0.414-0.186-0.859-0.28-1.34-0.28c-0.988,0-1.801,0.36-2.441,1.08C183.217,69.859,182.896,70.793,182.896,71.939z"/>
	<path d="M207.375,62.02c3.254,0,5.58,1.067,6.98,3.2c1.4,2.134,2.1,5.2,2.1,9.2c0,4.027-0.699,7.1-2.1,9.22
		c-1.4,2.12-3.727,3.18-6.98,3.18c-3.279,0-5.619-1.06-7.02-3.18c-1.4-2.12-2.1-5.193-2.1-9.22c0-4,0.699-7.066,2.1-9.2
		C201.756,63.086,204.096,62.02,207.375,62.02z M207.375,77.419c0.533,0,1.008-0.106,1.42-0.32c0.414-0.213,0.754-0.493,1.021-0.84
		c0.266-0.346,0.465-0.74,0.6-1.18c0.133-0.44,0.199-0.9,0.199-1.38s-0.066-0.946-0.199-1.4c-0.135-0.453-0.334-0.853-0.6-1.2
		c-0.268-0.347-0.607-0.626-1.021-0.84c-0.412-0.213-0.887-0.32-1.42-0.32c-1.094,0-1.912,0.387-2.459,1.16s-0.82,1.64-0.82,2.6
		c0,0.48,0.066,0.94,0.199,1.38c0.135,0.44,0.342,0.833,0.621,1.18c0.279,0.347,0.619,0.627,1.02,0.84
		S206.816,77.419,207.375,77.419z"/>
	<path d="M237.295,86.379h-5.48v-1.959c-0.959,0.774-1.973,1.367-3.039,1.78s-2.107,0.62-3.121,0.62
		c-1.199,0-2.307-0.294-3.318-0.88c-1.014-0.586-1.889-1.406-2.621-2.46c-0.734-1.053-1.314-2.313-1.74-3.78
		c-0.426-1.466-0.639-3.066-0.639-4.8c0-1.813,0.225-3.506,0.68-5.08c0.453-1.573,1.072-2.94,1.859-4.1
		c0.787-1.16,1.721-2.066,2.801-2.72c1.08-0.653,2.246-0.98,3.5-0.98c1.092,0,2.133,0.233,3.119,0.7
		c0.986,0.467,1.826,1.047,2.52,1.74v-2h5.68L237.295,86.379z M224.975,71.939c0,1.094,0.301,1.974,0.9,2.64s1.367,1,2.301,1
		c1.012,0,1.873-0.36,2.58-1.08c0.705-0.72,1.059-1.64,1.059-2.76c0-0.506-0.086-0.986-0.26-1.44c-0.174-0.453-0.42-0.846-0.74-1.18
		s-0.693-0.593-1.119-0.78c-0.428-0.186-0.881-0.28-1.359-0.28c-0.961,0-1.762,0.36-2.4,1.08
		C225.295,69.859,224.975,70.793,224.975,71.939z"/>
	<path d="M244.494,62.459l0.281,3.04c0.318-0.506,0.705-0.973,1.158-1.4c0.453-0.426,0.928-0.793,1.422-1.1
		c0.492-0.306,0.984-0.546,1.479-0.72c0.494-0.173,0.953-0.26,1.381-0.26c0.053,0.694,0.1,1.487,0.141,2.38
		c0.039,0.894,0.059,1.807,0.059,2.74c0,1.067-0.02,2.12-0.059,3.16c-0.041,1.04-0.088,2-0.141,2.88c-0.24-0.106-0.574-0.186-1-0.24
		c-0.428-0.053-0.787-0.08-1.08-0.08c-0.986,0-1.715,0.234-2.18,0.7c-0.467,0.467-0.701,1.047-0.701,1.74v11.08h-5.879
		c0.025-4.319,0.045-8.419,0.059-12.299c0.014-3.88,0.021-7.753,0.021-11.62H244.494z"/>
	<path d="M271.334,86.379h-5.48v-1.959c-0.959,0.774-1.973,1.367-3.039,1.78s-2.107,0.62-3.121,0.62
		c-1.199,0-2.307-0.294-3.318-0.88c-1.014-0.586-1.889-1.406-2.621-2.46c-0.734-1.053-1.314-2.313-1.74-3.78
		c-0.426-1.466-0.639-3.066-0.639-4.8c0-1.813,0.225-3.506,0.68-5.08c0.453-1.573,1.072-2.94,1.859-4.1
		c0.787-1.16,1.721-2.066,2.801-2.72c1.08-0.653,2.246-0.98,3.5-0.98c1.092,0,2.133,0.233,3.119,0.7
		c0.986,0.467,1.826,1.047,2.52,1.74v-11.72h5.68L271.334,86.379z M259.014,71.939c0,1.094,0.301,1.974,0.9,2.64s1.367,1,2.301,1
		c1.012,0,1.873-0.36,2.58-1.08c0.705-0.72,1.059-1.64,1.059-2.76c0-0.506-0.086-0.986-0.26-1.44c-0.174-0.453-0.42-0.846-0.74-1.18
		s-0.693-0.593-1.119-0.78c-0.428-0.186-0.881-0.28-1.359-0.28c-0.961,0-1.762,0.36-2.4,1.08
		C259.334,69.859,259.014,70.793,259.014,71.939z"/>
</g>
<g>
	<path fill-rule="evenodd" clip-rule="evenodd" fill="#6C0277" d="M139.182,75.404c0,0-15.738-12.674-16.202-14.38
		c-0.463-1.706-1.852-3.169-1.62-7.556c0.232-4.388-5.323-11.7-9.72-17.551c-4.397-5.849-4.051-4.752-2.895-8.408
		c1.157-3.656,1.852-11.456,1.157-13.771c-0.694-2.316,0-3.047-3.124,0.488c-3.125,3.533-8.564,9.505-10.416,9.383
		c-1.851-0.121-3.935-0.608-4.513-8.652c-0.579-8.043-1.736-10.236-6.828-0.73c-5.091,9.506-7.059,14.867-10.762,17.428
		c-3.703,2.559-9.952,6.459-10.762,7.678c-0.81,1.218,1.852-0.854,1.735,0.365c-0.115,1.219-7.753,5.972-10.067,10.969
		c0,0,4.05-1.219,0.579,3.29c-3.472,4.509-5.556,10.968-6.597,15.599c0,0,3.009-5.483,1.272,4.022
		c-1.735,9.506-3.24,20.596-5.322,24.13c0,0,4.513-4.509,1.388,2.804c-3.124,7.312-4.513,10.236-3.818,14.38
		c0,0,2.198-5.849,3.24,0.488c1.041,6.338,4.397,13.284,9.026,16.574c0,0-1.037-7.817,3.472-2.559
		c2.197,2.562,3.766,4.048,12.561,8.313c8.796,4.265,6.482,1.212,15.075,6.604c0,0-10.856-11.141,8.585,1.169
		c0,0,3.703,2.072,8.448,7.313c4.744,5.24-2.662-9.751,1.619-4.51c4.282,5.241,8.796,2.315,9.489,11.212
		c0,0,6.019-7.799,3.82-22.424c0,0-1.158-6.703,2.198,0.853c3.356,7.557-1.505-11.578-3.588-17.55c0,0-0.463-1.462,1.62,1.098
		c2.083,2.559,3.125,3.899-0.462-3.656c-3.589-7.556-5.093-9.141-9.49-13.894c-4.396-4.753-4.976-8.653-5.438-14.381
		s2.313-9.872,10.877-6.337c8.564,3.534,8.332,6.58,11.804,4.266c3.473-2.316,3.474-1.585,3.357-4.632
		C128.766,79.793,133.627,88.567,139.182,75.404z"/>
	<g>
		<path fill="#6C0277" d="M139.12,75.418c-2.78-2.217-5.539-4.459-8.267-6.74c-1.368-1.146-2.728-2.302-4.067-3.484
			c-0.669-0.592-1.333-1.189-1.983-1.805c-0.645-0.627-1.3-1.22-1.854-1.985c-0.064-0.09-0.137-0.23-0.172-0.349l-0.101-0.317
			c-0.071-0.198-0.152-0.4-0.238-0.604c-0.174-0.405-0.362-0.815-0.527-1.236c-0.337-0.841-0.575-1.731-0.699-2.632
			c-0.118-0.902-0.143-1.812-0.1-2.713c0.043-0.874-0.112-1.708-0.368-2.552c-0.511-1.674-1.345-3.252-2.236-4.78
			c-0.901-1.527-1.893-3.003-2.919-4.457c-2.061-2.902-4.24-5.723-6.402-8.567c-0.517-0.734-1.122-1.407-1.428-2.386
			c-0.145-0.501-0.064-1.041,0.06-1.482c0.124-0.454,0.274-0.868,0.413-1.292c0.575-1.677,0.878-3.398,1.13-5.161
			c0.239-1.754,0.402-3.524,0.447-5.291c0.019-0.881,0.022-1.768-0.064-2.629c-0.045-0.439-0.108-0.83-0.232-1.247
			c-0.131-0.442-0.222-0.902-0.32-1.313c-0.024-0.101-0.053-0.197-0.08-0.257c-0.011-0.031-0.028-0.048-0.01-0.026
			c0.008,0.024,0.111,0.056,0.139,0.05c0.061-0.018-0.04,0.02-0.099,0.074c-0.069,0.052-0.146,0.123-0.22,0.193
			c-0.301,0.292-0.598,0.625-0.893,0.955l-1.771,2.006c-1.188,1.336-2.394,2.658-3.643,3.944c-1.257,1.28-2.528,2.548-3.991,3.656
			c-0.371,0.272-0.755,0.535-1.193,0.754c-0.225,0.104-0.452,0.209-0.74,0.259c-0.123,0.031-0.334,0.03-0.44,0.021l-0.339-0.03
			c-0.484-0.052-0.982-0.164-1.437-0.417c-0.45-0.25-0.838-0.6-1.133-0.994c-0.597-0.791-0.917-1.688-1.164-2.57
			c-0.245-0.888-0.412-1.784-0.532-2.681c-0.254-1.802-0.298-3.586-0.523-5.329c-0.112-0.87-0.246-1.745-0.498-2.541
			c-0.125-0.387-0.304-0.779-0.515-0.964c-0.106-0.083-0.175-0.111-0.289-0.098c-0.113,0.007-0.271,0.082-0.422,0.181
			c-0.623,0.438-1.165,1.169-1.66,1.874c-0.497,0.719-0.957,1.474-1.4,2.239c-1.743,3.085-3.351,6.28-4.986,9.448
			c-0.823,1.585-1.645,3.175-2.57,4.72c-0.938,1.53-1.948,3.068-3.339,4.293c-0.696,0.626-1.462,1.109-2.196,1.605l-2.231,1.482
			c-1.487,0.984-2.976,1.965-4.433,2.982c-0.724,0.512-1.45,1.028-2.118,1.586c-0.335,0.277-0.661,0.574-0.806,0.862
			c-0.049,0.035,0.078,0.039-0.09-0.196c-0.205-0.109-0.128-0.035-0.11-0.063c0.068-0.015,0.172-0.052,0.271-0.089
			c0.202-0.076,0.413-0.165,0.645-0.237c0.24-0.042,0.462-0.209,0.915,0.01c0.23,0.161,0.257,0.422,0.248,0.561l-0.002,0.06
			c-0.016,0.105-0.01,0.052-0.017,0.086l-0.021,0.081c-0.026,0.072-0.069,0.16-0.109,0.235c-0.292,0.438-0.622,0.736-0.953,1.052
			c-0.666,0.614-1.349,1.187-2.024,1.769c-1.351,1.16-2.685,2.334-3.908,3.612c-1.217,1.274-2.353,2.654-3.104,4.224l-0.313-0.36
			c0.492-0.126,0.974-0.217,1.525-0.11c0.264,0.051,0.599,0.237,0.718,0.563c0.115,0.313,0.064,0.604-0.001,0.852
			c-0.141,0.505-0.393,0.922-0.646,1.332c-0.254,0.407-0.553,0.792-0.828,1.162c-0.569,0.757-1.085,1.512-1.562,2.318
			c-0.481,0.798-0.921,1.623-1.329,2.463c-1.625,3.366-2.789,6.954-3.632,10.602l-0.358-0.136c0.174-0.307,0.359-0.597,0.569-0.88
			c0.225-0.274,0.411-0.572,0.829-0.757c0.108-0.04,0.284-0.047,0.408,0.043c0.122,0.084,0.177,0.192,0.218,0.286
			c0.079,0.193,0.101,0.373,0.12,0.552c0.032,0.357,0.022,0.705,0.003,1.05c-0.092,1.379-0.332,2.728-0.577,4.071l-1.418,8.059
			c-0.461,2.689-0.921,5.38-1.479,8.055c-0.274,1.339-0.585,2.671-0.938,3.994c-0.371,1.317-0.77,2.639-1.446,3.871l-0.304-0.235
			c0.34-0.333,0.691-0.642,1.079-0.923c0.194-0.14,0.396-0.272,0.625-0.379c0.219-0.085,0.514-0.245,0.865-0.025
			c0.294,0.269,0.254,0.576,0.255,0.815c-0.013,0.252-0.059,0.488-0.112,0.721c-0.109,0.464-0.256,0.91-0.415,1.35
			c-0.659,1.753-1.435,3.424-2.136,5.139c-0.7,1.71-1.417,3.419-1.894,5.187c-0.238,0.883-0.411,1.78-0.468,2.685
			c-0.06,0.905,0,1.813,0.15,2.711l-0.474-0.046c0.204-0.522,0.437-1.017,0.73-1.499c0.149-0.239,0.312-0.475,0.52-0.691
			c0.202-0.204,0.481-0.445,0.899-0.435c0.422,0.052,0.661,0.357,0.812,0.602c0.157,0.259,0.266,0.525,0.354,0.793
			c0.176,0.534,0.296,1.073,0.388,1.613c0.361,2.129,0.924,4.188,1.696,6.194c0.398,0.995,0.816,1.983,1.315,2.931
			c0.485,0.954,1.026,1.878,1.627,2.761c0.296,0.444,0.609,0.877,0.941,1.293c0.316,0.43,0.684,0.816,1.03,1.219
			c0.374,0.377,0.733,0.77,1.139,1.11c0.384,0.367,0.817,0.671,1.233,0.996l-0.507,0.305c-0.101-0.849-0.145-1.685-0.082-2.548
			c0.039-0.431,0.102-0.867,0.273-1.311c0.096-0.22,0.219-0.447,0.436-0.64c0.221-0.197,0.554-0.281,0.826-0.25
			c0.553,0.067,0.93,0.348,1.279,0.612c0.35,0.271,0.651,0.575,0.944,0.884c0.568,0.615,1.094,1.266,1.673,1.82
			c0.275,0.296,0.582,0.56,0.889,0.823c0.297,0.274,0.62,0.52,0.951,0.757c0.636,0.502,1.348,0.914,2.03,1.361l2.143,1.216
			l2.19,1.144c2.969,1.444,5.905,2.999,9.032,3.89c0.781,0.227,1.594,0.413,2.405,0.685c0.809,0.27,1.595,0.607,2.342,0.99
			c1.503,0.758,2.922,1.627,4.336,2.501l-0.563,0.698c-0.823-0.864-1.604-1.74-2.313-2.723c-0.175-0.247-0.345-0.502-0.499-0.782
			c-0.144-0.292-0.316-0.556-0.34-1.043c-0.04-0.238,0.202-0.676,0.497-0.76c0.27-0.104,0.464-0.084,0.648-0.075
			c0.356,0.038,0.656,0.127,0.953,0.222c1.162,0.402,2.206,0.945,3.251,1.495c1.039,0.556,2.058,1.14,3.066,1.738
			s2.007,1.212,3,1.832c0.982,0.618,2.013,1.227,2.948,1.961c0.95,0.707,1.855,1.467,2.735,2.254c0.872,0.793,1.735,1.6,2.542,2.457
			l1.213,1.278c0.202,0.221,0.386,0.414,0.586,0.602c0.176,0.173,0.453,0.369,0.501,0.373c-0.002-0.007-0.104-0.015-0.201,0.068
			c-0.073,0.066-0.057,0.088-0.055,0.062c0.012-0.049,0.011-0.179-0.001-0.299c-0.023-0.249-0.081-0.526-0.143-0.799
			c-0.129-0.55-0.291-1.105-0.456-1.663l-0.495-1.689c-0.079-0.286-0.155-0.574-0.22-0.876c-0.033-0.15-0.062-0.306-0.084-0.47
			c-0.015-0.175-0.053-0.319,0.012-0.618c0.016-0.068,0.058-0.183,0.151-0.29c0.106-0.127,0.3-0.2,0.438-0.197
			c0.281,0.013,0.349,0.095,0.46,0.146c0.178,0.115,0.296,0.228,0.416,0.341c0.231,0.226,0.428,0.454,0.622,0.686
			c0.377,0.449,0.739,0.869,1.15,1.241c0.817,0.767,1.756,1.38,2.776,1.899c1.01,0.529,2.132,0.984,3.122,1.785
			c0.997,0.798,1.662,1.96,2.026,3.122c0.368,1.172,0.537,2.367,0.634,3.553l-0.856-0.256c1.659-2.423,2.716-5.364,3.384-8.292
			c0.681-2.951,0.876-6.005,0.772-9.035c-0.05-0.758-0.08-1.517-0.146-2.273l-0.273-2.263c-0.106-0.759-0.239-1.535-0.219-2.383
			c0.029-0.232-0.016-0.413,0.194-0.809c0.061-0.098,0.205-0.256,0.431-0.298c0.224-0.037,0.371,0.033,0.459,0.079
			c0.185,0.104,0.266,0.2,0.353,0.291c0.312,0.36,0.498,0.7,0.7,1.05c0.384,0.695,0.714,1.397,1.036,2.104l0.475,1.033
			c0.082,0.166,0.165,0.332,0.252,0.484c0.074,0.14,0.205,0.333,0.223,0.341l-0.053-0.031c-0.026-0.013-0.056-0.021-0.084-0.024
			c-0.046-0.012-0.143-0.017-0.21,0.011c-0.125,0.036-0.21,0.142-0.229,0.18c-0.014,0.013-0.025,0.062-0.024,0.053
			c0,0,0.011-0.089,0.009-0.161c-0.001-0.158-0.016-0.339-0.036-0.52c-0.041-0.363-0.102-0.737-0.167-1.108
			c-0.132-0.746-0.287-1.493-0.451-2.239c-0.659-2.986-1.445-5.954-2.247-8.912c-0.407-1.478-0.829-2.952-1.282-4.411l-0.35-1.089
			c-0.063-0.208-0.113-0.301-0.191-0.6c-0.014-0.066-0.025-0.135-0.029-0.223c0.006-0.091-0.021-0.196,0.104-0.415
			c0.063-0.11,0.231-0.225,0.36-0.24c0.139-0.025,0.22-0.001,0.282,0.014c0.131,0.038,0.188,0.078,0.254,0.116
			c0.429,0.298,0.653,0.584,0.931,0.884c0.262,0.297,0.51,0.604,0.749,0.901l0.724,0.887c0.232,0.275,0.513,0.607,0.704,0.76
			c-0.016,0.017,0.089-0.009-0.181-0.024c-0.174-0.003-0.347,0.232-0.332,0.273c-0.016,0.06-0.011,0.068-0.012,0.071
			c0-0.013-0.016-0.102-0.038-0.177c-0.044-0.159-0.107-0.335-0.171-0.508c-0.131-0.348-0.277-0.698-0.427-1.048
			c-0.605-1.396-1.254-2.797-1.915-4.17c-1.321-2.783-2.689-5.502-4.507-7.941c-0.881-1.234-1.908-2.367-2.922-3.513
			c-1.021-1.146-2.098-2.229-3.063-3.479c-1.956-2.447-3.187-5.471-3.627-8.547c-0.249-1.537-0.381-3.069-0.494-4.614
			c-0.097-1.553,0.001-3.176,0.637-4.666c0.327-0.734,0.798-1.429,1.438-1.945c0.629-0.53,1.409-0.849,2.193-1.018
			c1.591-0.305,3.187-0.038,4.682,0.38c1.503,0.438,2.921,1.051,4.319,1.716c1.395,0.667,2.749,1.428,4.04,2.277l1.915,1.275
			c0.635,0.397,1.311,0.761,2.01,0.645c0.705-0.1,1.343-0.533,1.986-0.947l1.957-1.219c0.314-0.207,0.63-0.417,0.82-0.696
			c0.194-0.273,0.221-0.649,0.237-1.021c0.007-0.376-0.005-0.76-0.017-1.144c-0.002-0.187-0.023-0.389,0.025-0.611
			c0.024-0.106,0.068-0.239,0.193-0.331c0.127-0.092,0.272-0.089,0.379-0.074c0.812,0.212,1.436,0.606,2.192,0.726
			c0.733,0.147,1.502,0.073,2.192-0.22c1.395-0.592,2.428-1.817,3.274-3.069C137.839,78.185,138.513,76.813,139.12,75.418z
			 M139.228,75.424c-0.593,1.418-1.256,2.816-2.097,4.112c-0.841,1.274-1.864,2.54-3.323,3.185c-0.721,0.319-1.547,0.41-2.324,0.264
			c-0.777-0.113-1.509-0.529-2.184-0.694c-0.307-0.083-0.28,0.344-0.263,0.724c0.017,0.384,0.035,0.769,0.032,1.161
			c-0.014,0.384-0.027,0.821-0.274,1.193c-0.245,0.363-0.589,0.585-0.908,0.804l-1.94,1.244c-0.633,0.415-1.297,0.901-2.133,1.035
			c-0.861,0.148-1.651-0.283-2.298-0.676c-0.664-0.409-1.291-0.847-1.936-1.259c-1.283-0.831-2.62-1.569-4.001-2.219
			c-1.379-0.645-2.798-1.244-4.251-1.655c-1.451-0.397-2.981-0.628-4.425-0.339c-1.448,0.278-2.652,1.287-3.203,2.651
			c-0.569,1.357-0.663,2.893-0.557,4.392c0.122,1.519,0.266,3.051,0.519,4.546c0.457,3.005,1.645,5.854,3.548,8.209
			c0.92,1.181,2.021,2.277,3.053,3.417c1.03,1.146,2.08,2.289,2.996,3.551c1.879,2.483,3.31,5.283,4.64,8.035
			c0.682,1.391,1.334,2.775,1.962,4.194c0.155,0.355,0.307,0.713,0.45,1.083c0.071,0.187,0.14,0.373,0.2,0.583
			c0.029,0.11,0.061,0.208,0.073,0.388c0,0.051,0.003,0.108-0.024,0.214c0.004,0.089-0.206,0.367-0.429,0.366
			c-0.2,0.011-0.259-0.038-0.318-0.061c-0.054-0.026-0.089-0.05-0.123-0.073c-0.41-0.329-0.608-0.606-0.879-0.91l-0.74-0.893
			c-0.245-0.3-0.481-0.589-0.73-0.867c-0.238-0.266-0.522-0.568-0.73-0.704c-0.015-0.011-0.042-0.021-0.005-0.007
			c0.017,0,0.048,0.017,0.14,0.002c0.08-0.011,0.208-0.093,0.244-0.164c0.075-0.136,0.042-0.141,0.051-0.136l0.01,0.063
			c0.017,0.073,0.116,0.336,0.167,0.495l0.363,1.104c0.469,1.472,0.903,2.95,1.323,4.433c0.839,2.965,1.6,5.949,2.271,8.964
			c0.165,0.755,0.321,1.513,0.457,2.28c0.066,0.386,0.129,0.771,0.174,1.171c0.022,0.201,0.04,0.403,0.042,0.63
			c-0.003,0.119,0.002,0.226-0.042,0.412c-0.007,0.038-0.043,0.129-0.074,0.187c-0.042,0.075-0.161,0.228-0.331,0.271
			c-0.091,0.029-0.212,0.032-0.281,0.018c-0.05-0.013-0.101-0.031-0.149-0.054c-0.118-0.058-0.116-0.075-0.169-0.114
			c-0.263-0.258-0.316-0.41-0.435-0.601c-0.104-0.182-0.192-0.359-0.28-0.538l-0.486-1.061c-0.314-0.692-0.639-1.382-0.998-2.032
			c-0.178-0.316-0.375-0.649-0.569-0.869c-0.042-0.05-0.099-0.093-0.083-0.081c0.006-0.001,0.056,0.036,0.184,0.018
			c0.129-0.024,0.198-0.11,0.208-0.129c0.018-0.058-0.039,0.163-0.035,0.309c-0.018,0.692,0.099,1.441,0.208,2.202l0.277,2.314
			c0.067,0.773,0.097,1.551,0.147,2.327c0.104,3.104-0.099,6.24-0.804,9.283c-0.709,3.042-1.745,6.006-3.569,8.666l-0.749,1.092
			l-0.108-1.348c-0.091-1.141-0.255-2.274-0.588-3.334c-0.335-1.057-0.885-2.006-1.721-2.681c-0.833-0.682-1.899-1.13-2.954-1.679
			c-1.06-0.539-2.099-1.214-2.985-2.05c-0.455-0.415-0.856-0.882-1.229-1.328c-0.181-0.217-0.366-0.432-0.553-0.613
			c-0.091-0.089-0.19-0.174-0.258-0.218c-0.014-0.017-0.077-0.019,0.055-0.004c0.065,0.002,0.188-0.041,0.244-0.114
			c0.048-0.051,0.057-0.098,0.058-0.094c-0.003-0.014-0.007,0.14,0.013,0.253c0.017,0.124,0.04,0.257,0.07,0.392
			c0.058,0.27,0.13,0.546,0.207,0.823l0.489,1.674c0.165,0.563,0.331,1.129,0.468,1.718c0.067,0.296,0.131,0.592,0.163,0.925
			c0.012,0.17,0.03,0.336-0.015,0.573c-0.028,0.116-0.065,0.28-0.243,0.45c-0.211,0.185-0.474,0.176-0.616,0.144
			c-0.516-0.167-0.678-0.394-0.935-0.602c-0.228-0.212-0.445-0.442-0.637-0.652l-1.198-1.265c-0.792-0.845-1.639-1.636-2.492-2.414
			c-0.861-0.771-1.747-1.516-2.669-2.204c-0.904-0.713-1.89-1.293-2.883-1.921c-0.988-0.618-1.98-1.229-2.98-1.823
			c-1-0.596-2.008-1.175-3.028-1.722c-1.019-0.539-2.059-1.074-3.107-1.437c-0.258-0.085-0.523-0.157-0.749-0.181
			c-0.104-0.01-0.212,0.001-0.215,0.008c0.018,0.019,0.081-0.125,0.06-0.068c-0.005,0.102,0.103,0.378,0.228,0.597
			c0.127,0.232,0.281,0.466,0.443,0.694c0.656,0.914,1.432,1.789,2.22,2.616l2.432,2.555l-2.995-1.856
			c-1.399-0.868-2.808-1.728-4.258-2.465c-0.724-0.374-1.462-0.694-2.221-0.952c-0.758-0.258-1.56-0.446-2.367-0.685
			c-3.251-0.949-6.202-2.527-9.158-4.006l-2.2-1.175c-0.726-0.407-1.445-0.831-2.164-1.256c-0.698-0.465-1.417-0.892-2.078-1.422
			c-0.34-0.249-0.673-0.507-0.983-0.798c-0.318-0.279-0.636-0.558-0.923-0.871c-0.61-0.6-1.118-1.246-1.67-1.85
			c-0.274-0.292-0.556-0.58-0.859-0.817c-0.294-0.238-0.635-0.447-0.913-0.476c-0.507-0.122-0.763,0.839-0.815,1.58
			c-0.064,0.788-0.028,1.613,0.061,2.406l0.087,0.774l-0.594-0.469c-0.434-0.342-0.885-0.666-1.282-1.049
			c-0.42-0.359-0.79-0.767-1.174-1.161c-0.355-0.418-0.732-0.82-1.054-1.264c-0.339-0.431-0.657-0.877-0.958-1.334
			c-0.609-0.909-1.156-1.857-1.644-2.834c-0.502-0.97-0.921-1.979-1.319-2.994c-0.377-1.022-0.728-2.056-1.002-3.111
			c-0.296-1.052-0.502-2.129-0.69-3.192c-0.086-0.526-0.201-1.046-0.361-1.539c-0.144-0.466-0.425-1.024-0.715-1.052
			c-0.304-0.019-0.702,0.466-0.955,0.883c-0.271,0.439-0.503,0.926-0.694,1.409l-0.331,0.833l-0.144-0.879
			c-0.151-0.93-0.209-1.881-0.142-2.824c0.064-0.943,0.249-1.873,0.497-2.775c0.499-1.81,1.228-3.522,1.938-5.234
			c0.708-1.709,1.5-3.398,2.153-5.109c0.157-0.431,0.302-0.865,0.407-1.302c0.051-0.218,0.094-0.438,0.105-0.649
			c0.02-0.205-0.021-0.432-0.095-0.476c-0.053-0.059-0.272-0.023-0.457,0.067c-0.191,0.088-0.379,0.209-0.562,0.339
			c-0.363,0.261-0.712,0.563-1.035,0.876l-0.943,0.914l0.639-1.149c0.646-1.16,1.055-2.471,1.426-3.772
			c0.356-1.311,0.673-2.634,0.952-3.967c0.569-2.664,1.041-5.351,1.516-8.037l1.39-8.066c0.237-1.341,0.467-2.686,0.548-4.031
			c0.018-0.335,0.024-0.671-0.008-0.994c-0.02-0.317-0.15-0.671-0.259-0.563c-0.217,0.089-0.454,0.375-0.643,0.629
			c-0.195,0.266-0.375,0.553-0.536,0.84l-0.65,1.163l0.292-1.299c0.827-3.678,1.975-7.297,3.6-10.714
			c0.407-0.854,0.848-1.692,1.332-2.507c0.475-0.815,1.017-1.618,1.573-2.366c0.284-0.386,0.56-0.746,0.802-1.139
			c0.238-0.386,0.47-0.791,0.578-1.196c0.114-0.433,0.044-0.713-0.343-0.782c-0.375-0.078-0.85-0.004-1.259,0.108l-0.556,0.153
			l0.243-0.514c0.784-1.663,1.945-3.08,3.176-4.387c1.237-1.308,2.579-2.502,3.926-3.674c0.672-0.586,1.353-1.165,1.995-1.765
			c0.313-0.297,0.64-0.618,0.84-0.925c0.008-0.024,0.022-0.034,0.039-0.064l0.057-0.081c0,0.007,0.038-0.072,0.038,0.005v-0.024
			c0-0.078-0.055-0.066-0.017-0.034c0.048-0.003-0.227,0-0.4,0.072c-0.194,0.061-0.403,0.146-0.618,0.229
			c-0.11,0.041-0.22,0.084-0.369,0.118c-0.086-0.01-0.137,0.098-0.436-0.08c-0.148-0.142-0.128-0.297-0.122-0.356
			c0.011-0.072,0.029-0.121,0.045-0.155c0.256-0.515,0.637-0.811,0.975-1.107c0.699-0.589,1.425-1.111,2.155-1.633
			c1.463-1.034,2.948-2.024,4.431-3.017l2.219-1.491c0.74-0.505,1.486-0.984,2.112-1.559c1.292-1.147,2.268-2.637,3.178-4.143
			c0.899-1.521,1.709-3.107,2.521-4.692c1.62-3.181,3.203-6.372,4.953-9.51c0.446-0.78,0.911-1.553,1.424-2.305
			c0.529-0.744,1.042-1.5,1.876-2.107c0.219-0.142,0.469-0.285,0.803-0.324c0.333-0.053,0.716,0.09,0.946,0.297
			c0.456,0.424,0.616,0.898,0.778,1.346c0.291,0.905,0.427,1.803,0.55,2.7c0.245,1.795,0.295,3.587,0.525,5.321
			c0.111,0.871,0.269,1.733,0.493,2.566c0.223,0.83,0.525,1.647,1.007,2.286c0.476,0.646,1.149,1.022,1.97,1.09l0.327,0.031
			c0.115,0.006,0.131,0.008,0.226-0.009c0.153-0.022,0.339-0.101,0.517-0.183c0.361-0.179,0.72-0.417,1.068-0.67
			c1.39-1.039,2.665-2.29,3.911-3.547c1.244-1.267,2.45-2.575,3.641-3.898l1.782-1.997c0.302-0.333,0.599-0.666,0.94-0.993
			c0.088-0.082,0.175-0.164,0.284-0.246c0.118-0.075,0.206-0.18,0.491-0.221c0.141-0.026,0.354,0.061,0.44,0.161
			c0.098,0.1,0.134,0.184,0.167,0.255c0.061,0.145,0.091,0.265,0.12,0.38c0.106,0.457,0.186,0.874,0.306,1.288
			c0.129,0.44,0.209,0.932,0.25,1.38c0.086,0.916,0.077,1.817,0.053,2.718c-0.056,1.801-0.23,3.588-0.482,5.367
			c-0.26,1.764-0.593,3.572-1.187,5.272c-0.262,0.847-0.676,1.693-0.475,2.406c0.215,0.74,0.805,1.466,1.311,2.176
			c2.14,2.848,4.309,5.687,6.365,8.614c1.023,1.467,2.015,2.96,2.918,4.511c0.894,1.554,1.735,3.159,2.259,4.906
			c0.26,0.859,0.427,1.808,0.374,2.72c-0.047,0.879-0.027,1.76,0.081,2.628c0.11,0.867,0.322,1.716,0.637,2.536
			c0.154,0.412,0.333,0.816,0.505,1.233c0.085,0.208,0.167,0.421,0.243,0.644l0.098,0.321c0.029,0.095,0.059,0.155,0.12,0.249
			c1.037,1.367,2.43,2.558,3.719,3.766c1.318,1.198,2.661,2.372,4.012,3.536c2.703,2.326,5.44,4.616,8.197,6.878l0.029,0.024
			L139.228,75.424z"/>
	</g>
</g>
<path fill-rule="evenodd" clip-rule="evenodd" fill="#FFFFFF" d="M132.32,76.404c0,0-15.737-12.674-16.2-14.38
	c-0.464-1.706-1.853-3.169-1.621-7.556c0.231-4.388-5.323-11.7-9.721-17.551c-4.397-5.849-4.05-4.752-2.893-8.408
	c1.156-3.656,1.851-11.456,1.156-13.771c-0.694-2.316,0-3.047-3.125,0.488c-3.124,3.533-8.563,9.505-10.414,9.383
	c-1.852-0.121-3.936-0.608-4.514-8.652c-0.578-8.043-1.735-10.236-6.827-0.73s-7.06,14.867-10.763,17.428
	c-3.702,2.559-9.952,6.459-10.763,7.678c-0.809,1.218,1.852-0.854,1.736,0.365s-7.754,5.972-10.068,10.969
	c0,0,4.052-1.219,0.58,3.29c-3.473,4.509-5.555,10.968-6.597,15.599c0,0,3.009-5.483,1.273,4.022
	c-1.736,9.506-3.241,20.596-5.324,24.13c0,0,4.513-4.509,1.389,2.804c-3.124,7.312-4.513,10.236-3.818,14.38
	c0,0,2.199-5.849,3.24,0.488c1.042,6.338,4.398,13.284,9.026,16.574c0,0-1.038-7.817,3.472-2.559
	c2.196,2.562,3.766,4.048,12.561,8.313c8.795,4.265,6.482,1.212,15.075,6.604c0,0-10.856-11.141,8.585,1.169
	c0,0,3.703,2.072,8.448,7.313c4.744,5.24-2.662-9.751,1.619-4.51c4.282,5.241,8.795,2.315,9.49,11.212c0,0,6.018-7.799,3.818-22.424
	c0,0-1.156-6.703,2.199,0.853c3.355,7.557-1.505-11.578-3.587-17.55c0,0-0.464-1.462,1.619,1.098
	c2.083,2.559,3.125,3.899-0.462-3.656c-3.588-7.556-5.093-9.141-9.49-13.894s-4.976-8.653-5.438-14.381s2.313-9.872,10.878-6.337
	c8.563,3.534,8.331,6.58,11.804,4.266c3.472-2.316,3.472-1.585,3.356-4.632C121.905,80.793,126.767,89.567,132.32,76.404z"/>
<g>
	<path fill-rule="evenodd" clip-rule="evenodd" fill="#6C0277" d="M125.377,74.211c0,0-15.737-12.674-16.201-14.381
		c-0.463-1.705-1.852-3.168-1.62-7.556c0.232-4.388-5.323-11.699-9.721-17.55c-4.397-5.85-4.05-4.752-2.894-8.408
		c1.157-3.656,1.852-11.457,1.157-13.771c-0.694-2.316,0-3.047-3.124,0.487c-3.125,3.534-8.564,9.506-10.416,9.384
		c-1.851-0.121-3.935-0.609-4.513-8.652c-0.579-8.043-1.735-10.237-6.827-0.731S64.159,27.9,60.457,30.46
		c-3.704,2.56-9.953,6.459-10.763,7.679c-0.81,1.218,1.852-0.854,1.735,0.365c-0.115,1.219-7.753,5.972-10.067,10.968
		c0,0,4.05-1.218,0.579,3.29c-3.472,4.51-5.555,10.969-6.597,15.6c0,0,3.009-5.484,1.272,4.021
		c-1.735,9.506-3.24,20.596-5.322,24.131c0,0,4.513-4.51,1.388,2.803c-3.124,7.313-4.514,10.237-3.818,14.381
		c0,0,2.198-5.85,3.24,0.488c1.041,6.337,4.397,13.284,9.026,16.575c0,0-1.037-7.818,3.472-2.561
		c2.196,2.563,3.766,4.049,12.562,8.313c8.795,4.266,6.481,1.212,15.074,6.605c0,0-10.856-11.14,8.585,1.169
		c0,0,3.704,2.072,8.447,7.312c4.745,5.24-2.661-9.75,1.62-4.51c4.283,5.241,8.796,2.315,9.49,11.212c0,0,6.018-7.799,3.818-22.423
		c0,0-1.156-6.704,2.199,0.853c3.356,7.557-1.505-11.578-3.588-17.55c0,0-0.463-1.462,1.62,1.098
		c2.083,2.559,3.125,3.899-0.462-3.656c-3.588-7.557-5.093-9.141-9.49-13.895c-4.396-4.752-4.976-8.652-5.438-14.38
		c-0.464-5.728,2.313-9.872,10.877-6.338c8.564,3.534,8.333,6.581,11.804,4.267c3.472-2.316,3.473-1.586,3.356-4.632
		S119.823,87.373,125.377,74.211z"/>
	<g>
		<path fill="#6C0277" d="M125.315,74.225c-2.779-2.217-5.538-4.459-8.266-6.741c-1.368-1.146-2.728-2.302-4.067-3.484
			c-0.669-0.592-1.333-1.19-1.983-1.805c-0.644-0.627-1.3-1.221-1.854-1.986c-0.064-0.09-0.137-0.231-0.172-0.349l-0.101-0.317
			c-0.071-0.198-0.152-0.4-0.239-0.604c-0.174-0.405-0.361-0.815-0.526-1.236c-0.337-0.84-0.575-1.731-0.699-2.632
			c-0.118-0.902-0.143-1.812-0.1-2.713c0.043-0.874-0.112-1.707-0.368-2.552c-0.511-1.674-1.346-3.252-2.236-4.78
			c-0.901-1.527-1.894-3.003-2.919-4.456c-2.062-2.902-4.241-5.722-6.403-8.567c-0.516-0.734-1.122-1.407-1.428-2.386
			c-0.145-0.502-0.064-1.041,0.061-1.482c0.124-0.454,0.275-0.868,0.413-1.292c0.574-1.676,0.878-3.398,1.13-5.161
			c0.239-1.754,0.402-3.524,0.447-5.291c0.019-0.881,0.022-1.767-0.064-2.628c-0.045-0.439-0.108-0.831-0.232-1.248
			c-0.13-0.442-0.221-0.902-0.319-1.313c-0.024-0.101-0.054-0.197-0.08-0.257c-0.011-0.031-0.028-0.047-0.01-0.026
			c0.009,0.025,0.111,0.055,0.139,0.05c0.06-0.018-0.04,0.02-0.099,0.074c-0.069,0.052-0.146,0.123-0.221,0.193
			c-0.301,0.292-0.598,0.625-0.893,0.955l-1.771,2.006c-1.188,1.335-2.394,2.658-3.643,3.944c-1.257,1.28-2.528,2.548-3.991,3.656
			c-0.372,0.272-0.755,0.535-1.193,0.754c-0.225,0.105-0.452,0.209-0.74,0.259c-0.123,0.031-0.335,0.03-0.44,0.02l-0.339-0.03
			c-0.484-0.052-0.981-0.164-1.437-0.417c-0.45-0.25-0.838-0.599-1.133-0.994c-0.597-0.791-0.917-1.688-1.164-2.57
			c-0.244-0.888-0.412-1.784-0.532-2.681c-0.254-1.802-0.298-3.586-0.523-5.329c-0.112-0.869-0.246-1.744-0.498-2.541
			c-0.125-0.387-0.304-0.779-0.514-0.964c-0.106-0.083-0.175-0.111-0.289-0.098c-0.113,0.007-0.271,0.081-0.422,0.181
			c-0.623,0.438-1.165,1.169-1.66,1.874c-0.497,0.719-0.957,1.474-1.4,2.24c-1.743,3.085-3.351,6.279-4.986,9.448
			c-0.823,1.585-1.645,3.175-2.57,4.72c-0.938,1.53-1.948,3.068-3.339,4.293c-0.695,0.626-1.462,1.109-2.196,1.605l-2.231,1.482
			c-1.487,0.984-2.976,1.965-4.433,2.982c-0.724,0.511-1.45,1.028-2.118,1.585c-0.335,0.278-0.66,0.575-0.806,0.862
			c-0.049,0.035,0.076,0.042-0.088-0.194c-0.208-0.113-0.13-0.036-0.113-0.065c0.068-0.014,0.172-0.051,0.271-0.088
			c0.202-0.076,0.413-0.165,0.645-0.237c0.239-0.042,0.462-0.209,0.914,0.008c0.23,0.16,0.258,0.422,0.25,0.561l-0.002,0.06
			c-0.015,0.106-0.01,0.053-0.017,0.086l-0.021,0.081c-0.026,0.071-0.069,0.16-0.109,0.234c-0.292,0.439-0.622,0.736-0.953,1.053
			c-0.665,0.614-1.349,1.187-2.024,1.769c-1.351,1.16-2.685,2.334-3.908,3.612c-1.218,1.274-2.354,2.654-3.104,4.223l-0.313-0.361
			c0.492-0.125,0.974-0.217,1.526-0.109c0.264,0.051,0.599,0.237,0.718,0.563c0.115,0.313,0.064,0.604-0.001,0.852
			c-0.141,0.505-0.393,0.922-0.646,1.332c-0.254,0.407-0.553,0.792-0.828,1.162c-0.569,0.757-1.084,1.512-1.561,2.318
			c-0.481,0.798-0.921,1.623-1.328,2.463c-1.625,3.366-2.789,6.954-3.632,10.602l-0.358-0.136c0.174-0.307,0.359-0.597,0.569-0.881
			c0.225-0.274,0.411-0.572,0.828-0.757c0.108-0.04,0.284-0.048,0.408,0.042c0.122,0.084,0.178,0.192,0.218,0.286
			c0.079,0.193,0.101,0.373,0.12,0.552c0.032,0.357,0.022,0.705,0.003,1.05c-0.092,1.379-0.332,2.728-0.577,4.071l-1.418,8.06
			c-0.462,2.689-0.922,5.38-1.479,8.056c-0.274,1.338-0.585,2.67-0.939,3.994c-0.37,1.317-0.769,2.639-1.446,3.871l-0.304-0.235
			c0.34-0.333,0.691-0.642,1.079-0.923c0.194-0.14,0.396-0.272,0.625-0.38c0.219-0.084,0.514-0.244,0.865-0.025
			c0.295,0.269,0.254,0.577,0.256,0.815c-0.013,0.252-0.059,0.488-0.112,0.721c-0.109,0.464-0.256,0.91-0.415,1.351
			c-0.66,1.752-1.435,3.423-2.136,5.139c-0.7,1.709-1.417,3.419-1.894,5.187c-0.238,0.883-0.411,1.78-0.468,2.685
			c-0.06,0.905-0.001,1.813,0.15,2.711l-0.474-0.046c0.204-0.522,0.437-1.018,0.73-1.499c0.149-0.239,0.312-0.475,0.52-0.691
			c0.202-0.204,0.482-0.445,0.899-0.435c0.422,0.051,0.661,0.357,0.812,0.602c0.157,0.259,0.265,0.525,0.354,0.792
			c0.176,0.534,0.296,1.073,0.388,1.614c0.361,2.128,0.924,4.188,1.696,6.194c0.398,0.995,0.816,1.983,1.315,2.931
			c0.485,0.954,1.027,1.879,1.627,2.762c0.297,0.444,0.609,0.876,0.942,1.293c0.316,0.43,0.684,0.815,1.03,1.219
			c0.373,0.377,0.733,0.77,1.139,1.11c0.384,0.366,0.816,0.671,1.232,0.996l-0.507,0.305c-0.101-0.849-0.145-1.685-0.082-2.548
			c0.039-0.431,0.102-0.867,0.273-1.311c0.096-0.22,0.218-0.447,0.435-0.641c0.221-0.196,0.553-0.281,0.825-0.251
			c0.554,0.067,0.931,0.348,1.28,0.611c0.351,0.271,0.651,0.576,0.945,0.885c0.569,0.614,1.094,1.266,1.673,1.82
			c0.274,0.296,0.582,0.56,0.889,0.823c0.296,0.275,0.62,0.52,0.95,0.757c0.636,0.503,1.348,0.915,2.03,1.361l2.143,1.216
			l2.191,1.144c2.969,1.443,5.905,2.999,9.032,3.891c0.781,0.227,1.594,0.413,2.405,0.685c0.809,0.269,1.595,0.607,2.342,0.99
			c1.503,0.758,2.922,1.627,4.336,2.501l-0.563,0.698c-0.823-0.864-1.604-1.739-2.313-2.723c-0.175-0.247-0.345-0.502-0.499-0.782
			c-0.144-0.292-0.317-0.555-0.34-1.043c-0.04-0.238,0.202-0.676,0.497-0.76c0.27-0.104,0.464-0.083,0.648-0.074
			c0.356,0.037,0.657,0.127,0.953,0.222c1.163,0.401,2.206,0.944,3.251,1.494c1.04,0.556,2.058,1.14,3.066,1.739
			c1.008,0.598,2.007,1.211,3,1.831c0.982,0.618,2.013,1.227,2.948,1.96c0.95,0.708,1.856,1.467,2.735,2.254
			c0.872,0.794,1.735,1.6,2.542,2.458l1.213,1.278c0.203,0.221,0.387,0.414,0.587,0.601c0.175,0.173,0.453,0.37,0.501,0.373
			c-0.003-0.007-0.105-0.015-0.202,0.068c-0.072,0.066-0.056,0.087-0.055,0.062c0.012-0.05,0.011-0.18-0.001-0.3
			c-0.023-0.249-0.081-0.525-0.143-0.799c-0.128-0.549-0.291-1.105-0.455-1.662l-0.495-1.689c-0.079-0.286-0.156-0.575-0.221-0.876
			c-0.033-0.15-0.062-0.306-0.083-0.471c-0.015-0.175-0.053-0.319,0.013-0.619c0.016-0.067,0.058-0.183,0.153-0.29
			c0.106-0.127,0.302-0.198,0.438-0.195c0.28,0.014,0.348,0.095,0.458,0.147c0.178,0.115,0.296,0.228,0.416,0.341
			c0.231,0.226,0.427,0.454,0.621,0.686c0.377,0.448,0.739,0.869,1.15,1.24c0.817,0.768,1.756,1.38,2.776,1.899
			c1.011,0.529,2.132,0.984,3.122,1.785c0.998,0.799,1.662,1.96,2.026,3.122c0.368,1.172,0.538,2.367,0.635,3.553l-0.856-0.256
			c1.659-2.423,2.716-5.364,3.383-8.292c0.681-2.951,0.876-6.005,0.771-9.035c-0.05-0.758-0.08-1.517-0.146-2.273l-0.273-2.263
			c-0.106-0.76-0.239-1.535-0.218-2.383c0.029-0.233-0.017-0.414,0.195-0.81c0.061-0.099,0.208-0.256,0.433-0.297
			c0.223-0.036,0.37,0.034,0.458,0.08c0.184,0.104,0.265,0.2,0.352,0.291c0.312,0.36,0.498,0.7,0.7,1.05
			c0.384,0.695,0.714,1.398,1.036,2.104l0.475,1.034c0.082,0.166,0.165,0.332,0.252,0.483c0.074,0.14,0.205,0.333,0.223,0.341
			l-0.054-0.031c-0.026-0.014-0.055-0.021-0.083-0.024c-0.048-0.013-0.144-0.017-0.211,0.011c-0.125,0.036-0.21,0.144-0.227,0.18
			c-0.015,0.013-0.025,0.062-0.024,0.053c0,0,0.011-0.089,0.009-0.161c-0.001-0.158-0.016-0.339-0.037-0.52
			c-0.04-0.363-0.101-0.737-0.166-1.109c-0.132-0.745-0.287-1.492-0.451-2.238c-0.659-2.986-1.445-5.955-2.247-8.912
			c-0.407-1.478-0.829-2.952-1.282-4.411l-0.35-1.09c-0.063-0.207-0.113-0.3-0.191-0.599c-0.014-0.066-0.025-0.135-0.029-0.224
			c0.006-0.09-0.021-0.195,0.104-0.415c0.063-0.11,0.232-0.225,0.36-0.239c0.139-0.025,0.22-0.001,0.282,0.014
			c0.13,0.038,0.188,0.078,0.254,0.116c0.428,0.298,0.653,0.584,0.93,0.885c0.262,0.296,0.51,0.604,0.749,0.9l0.724,0.887
			c0.232,0.275,0.513,0.607,0.704,0.76c-0.016,0.017,0.089-0.009-0.182-0.024c-0.175-0.002-0.347,0.232-0.332,0.274
			c-0.015,0.059-0.011,0.067-0.011,0.071c0-0.014-0.016-0.103-0.038-0.178c-0.044-0.159-0.107-0.335-0.171-0.508
			c-0.131-0.348-0.277-0.698-0.427-1.048c-0.605-1.396-1.254-2.797-1.915-4.171c-1.321-2.783-2.689-5.501-4.506-7.941
			c-0.881-1.233-1.908-2.367-2.922-3.513c-1.021-1.146-2.097-2.229-3.063-3.479c-1.956-2.447-3.187-5.471-3.627-8.547
			c-0.249-1.537-0.381-3.069-0.494-4.614c-0.097-1.553,0.001-3.175,0.637-4.666c0.326-0.734,0.797-1.428,1.438-1.944
			c0.628-0.531,1.409-0.85,2.192-1.019c1.591-0.305,3.187-0.039,4.682,0.379c1.503,0.438,2.921,1.05,4.32,1.715
			c1.395,0.667,2.749,1.428,4.04,2.277l1.915,1.274c0.635,0.397,1.311,0.763,2.01,0.646c0.705-0.099,1.343-0.533,1.986-0.947
			l1.957-1.219c0.314-0.207,0.631-0.417,0.82-0.696c0.194-0.273,0.221-0.649,0.237-1.021c0.007-0.376-0.005-0.76-0.017-1.143
			c-0.002-0.187-0.023-0.39,0.025-0.611c0.024-0.106,0.068-0.239,0.193-0.331c0.127-0.092,0.272-0.089,0.379-0.074
			c0.812,0.212,1.436,0.605,2.192,0.726c0.733,0.147,1.502,0.073,2.192-0.22c1.395-0.592,2.428-1.816,3.275-3.069
			C124.035,76.992,124.709,75.62,125.315,74.225z M125.423,74.23c-0.593,1.418-1.256,2.816-2.097,4.112
			c-0.841,1.274-1.864,2.54-3.323,3.185c-0.722,0.318-1.547,0.409-2.324,0.263c-0.777-0.113-1.509-0.529-2.184-0.693
			c-0.307-0.083-0.28,0.344-0.263,0.724c0.017,0.384,0.035,0.769,0.032,1.161c-0.014,0.384-0.027,0.821-0.275,1.193
			c-0.245,0.363-0.589,0.585-0.908,0.805l-1.939,1.244c-0.634,0.415-1.298,0.901-2.133,1.035c-0.862,0.147-1.651-0.284-2.297-0.677
			c-0.664-0.409-1.292-0.847-1.936-1.259c-1.283-0.831-2.62-1.569-4.002-2.219c-1.379-0.645-2.797-1.244-4.25-1.654
			c-1.451-0.397-2.981-0.628-4.425-0.338c-1.447,0.279-2.652,1.287-3.203,2.652c-0.569,1.357-0.663,2.893-0.556,4.391
			c0.122,1.519,0.266,3.051,0.519,4.546c0.457,3.005,1.645,5.854,3.548,8.209c0.921,1.18,2.021,2.277,3.053,3.417
			c1.03,1.146,2.08,2.289,2.996,3.551c1.879,2.483,3.31,5.283,4.64,8.035c0.681,1.391,1.334,2.775,1.962,4.194
			c0.155,0.355,0.307,0.713,0.45,1.083c0.071,0.187,0.14,0.373,0.2,0.583c0.029,0.109,0.061,0.208,0.073,0.387
			c0,0.052,0.003,0.108-0.024,0.215c0.004,0.088-0.204,0.365-0.428,0.366c-0.202,0.012-0.26-0.038-0.319-0.061
			c-0.054-0.026-0.089-0.05-0.124-0.073c-0.41-0.328-0.608-0.606-0.879-0.91l-0.741-0.893c-0.245-0.3-0.481-0.589-0.73-0.867
			c-0.239-0.266-0.523-0.568-0.73-0.704c-0.016-0.011-0.042-0.021-0.005-0.007c0.017,0,0.047,0.017,0.14,0.002
			c0.08-0.01,0.208-0.093,0.244-0.163c0.075-0.137,0.043-0.142,0.052-0.137l0.01,0.062c0.017,0.074,0.116,0.337,0.167,0.496
			l0.363,1.104c0.469,1.472,0.903,2.95,1.322,4.433c0.84,2.965,1.6,5.948,2.271,8.964c0.165,0.755,0.322,1.513,0.458,2.28
			c0.066,0.385,0.129,0.771,0.174,1.171c0.022,0.201,0.04,0.403,0.042,0.63c-0.003,0.118,0.003,0.225-0.042,0.411
			c-0.006,0.038-0.043,0.129-0.074,0.188c-0.041,0.073-0.161,0.227-0.33,0.271c-0.091,0.029-0.211,0.032-0.282,0.018
			c-0.05-0.013-0.102-0.03-0.15-0.053c-0.117-0.058-0.117-0.076-0.169-0.115c-0.263-0.257-0.316-0.41-0.436-0.601
			c-0.104-0.181-0.192-0.359-0.28-0.538l-0.486-1.061c-0.314-0.692-0.638-1.382-0.997-2.032c-0.178-0.316-0.375-0.649-0.569-0.869
			c-0.042-0.05-0.099-0.093-0.083-0.082c0.005-0.001,0.055,0.036,0.182,0.019c0.128-0.023,0.199-0.11,0.209-0.129
			c0.019-0.059-0.039,0.162-0.034,0.308c-0.019,0.691,0.098,1.442,0.207,2.202l0.277,2.313c0.067,0.774,0.097,1.552,0.147,2.327
			c0.104,3.105-0.099,6.241-0.803,9.283c-0.709,3.042-1.744,6.007-3.568,8.666l-0.749,1.093l-0.108-1.348
			c-0.091-1.141-0.256-2.274-0.588-3.333c-0.335-1.058-0.885-2.006-1.721-2.681c-0.833-0.682-1.899-1.131-2.954-1.679
			c-1.06-0.54-2.099-1.215-2.985-2.051c-0.455-0.414-0.857-0.881-1.229-1.327c-0.181-0.217-0.367-0.432-0.554-0.613
			c-0.091-0.089-0.19-0.175-0.258-0.218c-0.015-0.018-0.077-0.02,0.054-0.005c0.063,0.003,0.188-0.039,0.244-0.112
			c0.05-0.052,0.058-0.099,0.06-0.095c-0.003-0.015-0.007,0.138,0.013,0.252c0.017,0.124,0.04,0.256,0.07,0.392
			c0.058,0.27,0.13,0.546,0.207,0.822l0.489,1.675c0.166,0.563,0.331,1.129,0.468,1.717c0.067,0.297,0.131,0.593,0.163,0.925
			c0.013,0.17,0.03,0.336-0.015,0.573c-0.029,0.117-0.064,0.279-0.242,0.45c-0.21,0.185-0.473,0.178-0.616,0.145
			c-0.517-0.166-0.679-0.393-0.937-0.601c-0.227-0.212-0.445-0.442-0.637-0.652l-1.198-1.265c-0.792-0.845-1.639-1.636-2.492-2.415
			c-0.86-0.771-1.746-1.515-2.669-2.203c-0.904-0.713-1.89-1.293-2.883-1.921c-0.988-0.618-1.98-1.229-2.98-1.823
			s-2.008-1.175-3.028-1.722c-1.019-0.539-2.059-1.074-3.107-1.437c-0.259-0.084-0.523-0.156-0.749-0.18
			c-0.104-0.011-0.212,0.001-0.215,0.007c0.017,0.02,0.081-0.125,0.06-0.067c-0.005,0.102,0.102,0.377,0.228,0.597
			c0.126,0.231,0.281,0.465,0.442,0.693c0.657,0.914,1.433,1.789,2.22,2.616l2.433,2.556l-2.997-1.858
			c-1.399-0.867-2.808-1.727-4.258-2.464c-0.724-0.375-1.461-0.695-2.221-0.952c-0.758-0.259-1.56-0.447-2.367-0.685
			c-3.251-0.949-6.201-2.528-9.158-4.008l-2.2-1.174c-0.726-0.407-1.445-0.831-2.164-1.255c-0.698-0.466-1.417-0.892-2.078-1.423
			c-0.34-0.249-0.673-0.507-0.982-0.798c-0.318-0.278-0.636-0.558-0.923-0.871c-0.61-0.6-1.118-1.247-1.67-1.85
			c-0.274-0.292-0.556-0.58-0.859-0.817c-0.294-0.238-0.635-0.447-0.913-0.476c-0.507-0.12-0.762,0.841-0.815,1.582
			c-0.064,0.788-0.028,1.613,0.061,2.406l0.087,0.774l-0.594-0.469c-0.434-0.342-0.885-0.666-1.282-1.049
			c-0.42-0.359-0.79-0.768-1.174-1.161c-0.355-0.418-0.732-0.82-1.054-1.265c-0.34-0.431-0.657-0.877-0.958-1.334
			c-0.609-0.909-1.156-1.857-1.644-2.834c-0.502-0.97-0.921-1.979-1.319-2.994c-0.377-1.022-0.728-2.056-1.002-3.111
			c-0.296-1.053-0.502-2.13-0.69-3.193c-0.086-0.525-0.201-1.045-0.361-1.538c-0.144-0.467-0.425-1.024-0.715-1.052
			c-0.304-0.019-0.702,0.466-0.955,0.883c-0.271,0.439-0.503,0.926-0.694,1.409l-0.331,0.833l-0.144-0.879
			c-0.152-0.93-0.209-1.881-0.143-2.824c0.064-0.944,0.249-1.873,0.497-2.775c0.499-1.81,1.228-3.522,1.938-5.234
			c0.708-1.71,1.5-3.399,2.153-5.11c0.157-0.43,0.302-0.864,0.407-1.302c0.051-0.218,0.094-0.438,0.105-0.649
			c0.02-0.205-0.021-0.431-0.095-0.475c-0.053-0.059-0.272-0.023-0.457,0.067c-0.191,0.088-0.379,0.209-0.562,0.338
			c-0.363,0.262-0.712,0.564-1.035,0.877l-0.942,0.914l0.639-1.149c0.646-1.161,1.055-2.471,1.426-3.772
			c0.356-1.311,0.672-2.635,0.952-3.968c0.569-2.663,1.041-5.35,1.516-8.036l1.39-8.066c0.237-1.34,0.467-2.686,0.548-4.031
			c0.018-0.335,0.024-0.671-0.008-0.994c-0.02-0.317-0.15-0.67-0.259-0.563c-0.217,0.089-0.454,0.376-0.643,0.63
			c-0.195,0.266-0.375,0.553-0.536,0.84l-0.651,1.165l0.292-1.3c0.828-3.678,1.976-7.297,3.6-10.715
			c0.407-0.854,0.848-1.692,1.332-2.507c0.475-0.815,1.017-1.618,1.573-2.366c0.283-0.386,0.56-0.746,0.802-1.139
			c0.238-0.386,0.47-0.791,0.578-1.196c0.114-0.433,0.044-0.713-0.343-0.783c-0.375-0.078-0.85-0.004-1.259,0.108l-0.556,0.153
			l0.243-0.514c0.784-1.663,1.945-3.08,3.176-4.387c1.237-1.308,2.579-2.502,3.926-3.674c0.672-0.586,1.353-1.164,1.995-1.765
			c0.313-0.297,0.64-0.618,0.84-0.925c0.008-0.025,0.022-0.033,0.039-0.065l-0.041-0.081c0,0.007-0.061-0.072-0.061,0.005v-0.024
			c0-0.078,0.043-0.065,0.082-0.034c0.046-0.003-0.179,0-0.353,0.073c-0.194,0.061-0.379,0.146-0.594,0.229
			c-0.11,0.041-0.207,0.083-0.357,0.118c-0.087-0.011-0.131,0.1-0.432-0.083c-0.146-0.143-0.121-0.297-0.115-0.355
			c0.011-0.072,0.031-0.12,0.046-0.154c0.257-0.514,0.638-0.811,0.976-1.106c0.699-0.589,1.426-1.111,2.155-1.633
			c1.463-1.034,2.949-2.024,4.431-3.017l2.218-1.491c0.74-0.505,1.486-0.985,2.113-1.559c1.292-1.147,2.268-2.637,3.177-4.143
			c0.9-1.521,1.71-3.107,2.521-4.693c1.62-3.18,3.203-6.372,4.953-9.509c0.446-0.781,0.911-1.553,1.423-2.305
			c0.529-0.744,1.042-1.5,1.876-2.107c0.219-0.142,0.469-0.285,0.803-0.324c0.333-0.053,0.716,0.09,0.946,0.298
			c0.456,0.423,0.616,0.898,0.778,1.345c0.291,0.905,0.427,1.803,0.549,2.7c0.245,1.795,0.295,3.587,0.525,5.321
			c0.111,0.872,0.269,1.733,0.493,2.567c0.223,0.829,0.525,1.647,1.007,2.286c0.476,0.646,1.149,1.022,1.97,1.09l0.327,0.031
			c0.116,0.006,0.132,0.008,0.226-0.009c0.154-0.022,0.339-0.101,0.517-0.183c0.362-0.178,0.72-0.417,1.068-0.67
			c1.39-1.039,2.665-2.29,3.911-3.547c1.244-1.267,2.45-2.575,3.64-3.898l1.782-1.997c0.302-0.333,0.599-0.666,0.94-0.994
			c0.088-0.082,0.175-0.163,0.284-0.245c0.118-0.075,0.206-0.18,0.491-0.222c0.141-0.026,0.354,0.061,0.44,0.161
			c0.098,0.1,0.134,0.184,0.167,0.255c0.062,0.145,0.092,0.265,0.12,0.38c0.106,0.457,0.186,0.874,0.305,1.289
			c0.129,0.44,0.21,0.931,0.25,1.38c0.086,0.916,0.077,1.817,0.053,2.718c-0.056,1.801-0.23,3.588-0.482,5.367
			c-0.26,1.764-0.593,3.572-1.187,5.272c-0.262,0.847-0.676,1.693-0.475,2.406c0.215,0.74,0.804,1.466,1.311,2.176
			c2.14,2.848,4.309,5.687,6.365,8.614c1.023,1.467,2.016,2.959,2.919,4.511c0.894,1.554,1.735,3.159,2.259,4.906
			c0.26,0.859,0.427,1.808,0.374,2.72c-0.047,0.879-0.027,1.76,0.081,2.628c0.11,0.868,0.321,1.716,0.637,2.536
			c0.154,0.412,0.333,0.816,0.504,1.233c0.085,0.208,0.167,0.421,0.243,0.644l0.098,0.321c0.029,0.095,0.059,0.155,0.12,0.249
			c1.037,1.368,2.429,2.558,3.718,3.767c1.318,1.198,2.661,2.372,4.011,3.536c2.704,2.326,5.44,4.616,8.197,6.878l0.029,0.024
			L125.423,74.23z"/>
	</g>
</g>
<path fill-rule="evenodd" clip-rule="evenodd" fill="#FFFFFF" d="M117.739,76.404c0,0-15.737-12.674-16.2-14.38
	s-1.853-3.169-1.621-7.556c0.232-4.388-5.323-11.7-9.721-17.551c-4.397-5.849-4.05-4.752-2.893-8.408
	c1.156-3.656,1.851-11.456,1.156-13.771c-0.694-2.316,0-3.047-3.125,0.488c-3.124,3.533-8.563,9.505-10.414,9.383
	c-1.852-0.121-3.936-0.608-4.514-8.652c-0.578-8.043-1.736-10.236-6.827-0.73c-5.092,9.506-7.06,14.867-10.763,17.428
	c-3.702,2.559-9.952,6.459-10.762,7.678c-0.81,1.218,1.851-0.854,1.735,0.365s-7.754,5.972-10.067,10.969
	c0,0,4.051-1.219,0.578,3.29c-3.471,4.509-5.555,10.968-6.596,15.599c0,0,3.009-5.483,1.273,4.022
	c-1.736,9.506-3.24,20.596-5.324,24.13c0,0,4.513-4.509,1.389,2.804c-3.125,7.312-4.513,10.236-3.818,14.38
	c0,0,2.199-5.849,3.24,0.488c1.041,6.338,4.397,13.284,9.026,16.574c0,0-1.038-7.817,3.472-2.559
	c2.196,2.562,3.767,4.048,12.562,8.313c8.795,4.265,6.482,1.212,15.074,6.604c0,0-10.856-11.141,8.585,1.169
	c0,0,3.703,2.072,8.448,7.313c4.744,5.24-2.662-9.751,1.62-4.51c4.281,5.241,8.795,2.315,9.489,11.212c0,0,6.018-7.799,3.818-22.424
	c0,0-1.156-6.703,2.199,0.853c3.355,7.557-1.505-11.578-3.587-17.55c0,0-0.464-1.462,1.619,1.098
	c2.083,2.559,3.125,3.899-0.463-3.656c-3.587-7.556-5.092-9.141-9.488-13.894c-4.398-4.753-4.977-8.653-5.439-14.381
	s2.313-9.872,10.878-6.337c8.563,3.534,8.332,6.58,11.804,4.266c3.472-2.316,3.472-1.585,3.356-4.632
	C107.324,80.793,112.186,89.567,117.739,76.404z"/>
<g>
	<path fill-rule="evenodd" clip-rule="evenodd" fill="#6C0277" d="M110.185,76.211c0,0-15.737-12.674-16.2-14.381
		c-0.463-1.705-1.853-3.168-1.621-7.556c0.232-4.388-5.323-11.699-9.721-17.55c-4.397-5.85-4.05-4.752-2.893-8.408
		c1.156-3.656,1.851-11.457,1.156-13.771c-0.694-2.316,0-3.047-3.125,0.487c-3.124,3.534-8.563,9.506-10.414,9.384
		c-1.852-0.121-3.936-0.609-4.514-8.652s-1.736-10.237-6.827-0.731c-5.092,9.506-7.06,14.868-10.763,17.428
		c-3.702,2.56-9.952,6.459-10.762,7.679c-0.81,1.218,1.851-0.854,1.735,0.365s-7.754,5.972-10.068,10.968
		c0,0,4.052-1.218,0.579,3.29c-3.472,4.51-5.554,10.969-6.596,15.6c0,0,3.009-5.484,1.273,4.021
		c-1.736,9.506-3.24,20.596-5.324,24.131c0,0,4.514-4.51,1.389,2.803c-3.125,7.313-4.513,10.237-3.818,14.381
		c0,0,2.199-5.85,3.24,0.488c1.041,6.337,4.398,13.284,9.026,16.575c0,0-1.038-7.818,3.472-2.561
		c2.197,2.563,3.767,4.049,12.562,8.313c8.795,4.266,6.482,1.212,15.074,6.605c0,0-10.856-11.14,8.585,1.169
		c0,0,3.703,2.072,8.448,7.312c4.744,5.24-2.662-9.75,1.62-4.51c4.281,5.241,8.795,2.315,9.489,11.212c0,0,6.018-7.799,3.818-22.423
		c0,0-1.156-6.704,2.199,0.853s-1.505-11.578-3.587-17.55c0,0-0.464-1.462,1.619,1.098c2.083,2.559,3.125,3.899-0.463-3.656
		c-3.587-7.557-5.092-9.141-9.489-13.895c-4.397-4.752-4.976-8.652-5.438-14.38s2.313-9.872,10.878-6.338
		c8.563,3.534,8.332,6.581,11.804,4.267c3.472-2.316,3.472-1.586,3.356-4.632C99.77,80.6,104.631,89.373,110.185,76.211z"/>
	<g>
		<path fill="#6C0277" d="M110.123,76.225c-2.779-2.217-5.538-4.459-8.266-6.741c-1.368-1.146-2.728-2.302-4.067-3.485
			c-0.669-0.592-1.333-1.189-1.983-1.805c-0.645-0.627-1.3-1.221-1.854-1.986c-0.064-0.09-0.137-0.231-0.172-0.349l-0.101-0.317
			c-0.071-0.198-0.152-0.4-0.238-0.604c-0.174-0.405-0.362-0.815-0.527-1.236c-0.338-0.84-0.575-1.731-0.7-2.632
			c-0.118-0.902-0.143-1.812-0.1-2.714c0.043-0.874-0.112-1.707-0.368-2.552c-0.511-1.674-1.346-3.252-2.236-4.78
			c-0.901-1.527-1.893-3.003-2.919-4.456c-2.062-2.901-4.242-5.722-6.403-8.567c-0.516-0.734-1.122-1.407-1.427-2.387
			c-0.145-0.501-0.063-1.041,0.061-1.482c0.124-0.454,0.275-0.868,0.414-1.292c0.574-1.676,0.877-3.398,1.129-5.161
			c0.239-1.754,0.402-3.524,0.446-5.291c0.019-0.881,0.022-1.767-0.064-2.629c-0.045-0.439-0.108-0.83-0.232-1.247
			c-0.13-0.442-0.221-0.902-0.319-1.313c-0.024-0.101-0.054-0.197-0.08-0.257c-0.011-0.031-0.028-0.046-0.009-0.026
			c0.009,0.025,0.112,0.055,0.139,0.05c0.06-0.018-0.041,0.02-0.1,0.074c-0.069,0.052-0.146,0.123-0.221,0.193
			c-0.301,0.292-0.598,0.625-0.893,0.955l-1.771,2.006c-1.188,1.336-2.393,2.658-3.642,3.944c-1.257,1.28-2.528,2.548-3.991,3.656
			c-0.371,0.272-0.755,0.535-1.193,0.754c-0.225,0.104-0.452,0.209-0.741,0.259c-0.123,0.03-0.335,0.03-0.439,0.02l-0.339-0.03
			c-0.484-0.052-0.982-0.164-1.437-0.417c-0.45-0.25-0.837-0.599-1.133-0.994c-0.597-0.791-0.917-1.688-1.164-2.57
			c-0.244-0.888-0.411-1.784-0.531-2.681c-0.254-1.802-0.298-3.586-0.522-5.329c-0.112-0.869-0.246-1.744-0.499-2.541
			c-0.125-0.387-0.304-0.779-0.514-0.963c-0.106-0.083-0.175-0.111-0.29-0.098c-0.113,0.008-0.271,0.082-0.422,0.181
			c-0.623,0.439-1.165,1.17-1.66,1.874c-0.497,0.719-0.957,1.474-1.399,2.24c-1.743,3.085-3.351,6.279-4.986,9.448
			c-0.823,1.585-1.645,3.174-2.57,4.72c-0.938,1.53-1.949,3.068-3.339,4.293c-0.696,0.626-1.462,1.109-2.196,1.605l-2.231,1.482
			c-1.487,0.984-2.976,1.965-4.433,2.982c-0.724,0.511-1.45,1.028-2.118,1.585c-0.335,0.278-0.66,0.574-0.806,0.862
			c-0.049,0.035,0.078,0.04-0.089-0.196c-0.206-0.11-0.129-0.035-0.111-0.064c0.068-0.015,0.172-0.052,0.271-0.089
			c0.203-0.076,0.414-0.165,0.646-0.237c0.24-0.042,0.462-0.209,0.915,0.01c0.23,0.161,0.257,0.422,0.249,0.561l-0.002,0.06
			c-0.016,0.105-0.01,0.052-0.017,0.086l-0.021,0.081c-0.026,0.072-0.069,0.16-0.109,0.235c-0.292,0.438-0.622,0.736-0.953,1.052
			c-0.666,0.614-1.349,1.187-2.024,1.769c-1.352,1.16-2.686,2.334-3.909,3.612c-1.218,1.274-2.354,2.654-3.104,4.223l-0.313-0.361
			c0.492-0.125,0.974-0.216,1.525-0.109c0.264,0.051,0.599,0.236,0.719,0.562c0.115,0.313,0.064,0.604-0.001,0.853
			c-0.141,0.505-0.393,0.921-0.646,1.332c-0.254,0.407-0.553,0.792-0.828,1.161c-0.569,0.757-1.085,1.512-1.562,2.318
			c-0.481,0.799-0.92,1.623-1.328,2.463c-1.625,3.367-2.789,6.955-3.632,10.603l-0.358-0.136c0.174-0.307,0.359-0.597,0.569-0.881
			c0.225-0.274,0.411-0.572,0.828-0.757c0.108-0.04,0.284-0.048,0.408,0.042c0.122,0.084,0.178,0.192,0.218,0.286
			c0.08,0.193,0.101,0.374,0.121,0.553c0.032,0.357,0.022,0.705,0.003,1.05c-0.091,1.379-0.331,2.728-0.577,4.071
			c-0.491,2.684-0.966,5.368-1.418,8.06c-0.462,2.689-0.922,5.38-1.48,8.055c-0.274,1.339-0.585,2.671-0.939,3.994
			c-0.371,1.317-0.77,2.639-1.447,3.871l-0.304-0.235c0.34-0.333,0.691-0.642,1.079-0.923c0.194-0.14,0.396-0.272,0.625-0.38
			c0.22-0.084,0.514-0.244,0.865-0.026c0.295,0.269,0.255,0.577,0.257,0.816c-0.013,0.251-0.059,0.487-0.112,0.721
			c-0.109,0.464-0.256,0.909-0.414,1.35c-0.66,1.753-1.436,3.424-2.136,5.14c-0.7,1.709-1.417,3.419-1.894,5.187
			c-0.238,0.883-0.411,1.779-0.468,2.685c-0.06,0.904,0,1.813,0.15,2.711l-0.474-0.046c0.204-0.522,0.437-1.017,0.73-1.499
			c0.148-0.239,0.312-0.475,0.52-0.691c0.202-0.204,0.481-0.445,0.899-0.435c0.422,0.051,0.661,0.357,0.812,0.602
			c0.157,0.259,0.266,0.524,0.354,0.792c0.176,0.534,0.296,1.073,0.388,1.613c0.361,2.129,0.924,4.188,1.697,6.195
			c0.398,0.994,0.816,1.982,1.315,2.931c0.485,0.954,1.027,1.878,1.627,2.761c0.296,0.444,0.609,0.877,0.941,1.293
			c0.316,0.431,0.684,0.816,1.03,1.22c0.374,0.377,0.733,0.77,1.139,1.11c0.384,0.366,0.816,0.671,1.232,0.996l-0.507,0.305
			c-0.101-0.849-0.145-1.685-0.082-2.548c0.039-0.431,0.102-0.867,0.273-1.311c0.096-0.22,0.218-0.448,0.435-0.641
			c0.221-0.196,0.553-0.281,0.825-0.251c0.554,0.067,0.931,0.348,1.28,0.611c0.35,0.271,0.651,0.576,0.945,0.885
			c0.569,0.614,1.094,1.266,1.673,1.82c0.275,0.296,0.582,0.56,0.889,0.823c0.297,0.274,0.62,0.52,0.95,0.757
			c0.636,0.502,1.348,0.914,2.03,1.361l2.143,1.216l2.191,1.144c2.969,1.443,5.905,2.999,9.032,3.891
			c0.781,0.227,1.594,0.413,2.405,0.684c0.809,0.27,1.595,0.608,2.342,0.99c1.503,0.758,2.922,1.628,4.336,2.502l-0.563,0.698
			c-0.823-0.864-1.604-1.739-2.313-2.723c-0.175-0.247-0.345-0.502-0.499-0.782c-0.144-0.292-0.317-0.555-0.34-1.043
			c-0.04-0.238,0.202-0.676,0.497-0.76c0.27-0.104,0.464-0.083,0.648-0.074c0.356,0.037,0.657,0.127,0.953,0.222
			c1.163,0.401,2.206,0.944,3.251,1.494c1.04,0.556,2.058,1.14,3.066,1.738s2.007,1.212,3,1.832c0.982,0.618,2.013,1.227,2.948,1.96
			c0.95,0.708,1.855,1.467,2.735,2.254c0.872,0.794,1.735,1.6,2.542,2.458l1.213,1.277c0.203,0.221,0.386,0.415,0.587,0.602
			c0.175,0.173,0.453,0.369,0.501,0.373c-0.002-0.007-0.104-0.015-0.202,0.068c-0.072,0.066-0.056,0.088-0.055,0.062
			c0.012-0.049,0.011-0.179-0.001-0.299c-0.023-0.25-0.081-0.526-0.143-0.799c-0.129-0.55-0.291-1.105-0.456-1.663l-0.495-1.689
			c-0.079-0.286-0.156-0.574-0.221-0.876c-0.033-0.15-0.062-0.306-0.083-0.471c-0.015-0.174-0.053-0.319,0.013-0.618
			c0.016-0.068,0.058-0.183,0.152-0.29c0.106-0.127,0.3-0.199,0.438-0.196c0.281,0.013,0.348,0.095,0.459,0.146
			c0.178,0.116,0.296,0.229,0.416,0.341c0.231,0.226,0.428,0.454,0.622,0.686c0.377,0.449,0.739,0.869,1.15,1.241
			c0.817,0.768,1.755,1.38,2.776,1.899c1.01,0.529,2.132,0.985,3.122,1.785c0.997,0.799,1.662,1.96,2.026,3.122
			c0.368,1.172,0.538,2.367,0.635,3.553l-0.856-0.256c1.659-2.423,2.716-5.364,3.383-8.292c0.681-2.951,0.876-6.005,0.771-9.035
			c-0.05-0.758-0.08-1.517-0.146-2.273l-0.273-2.263c-0.106-0.759-0.239-1.535-0.218-2.383c0.029-0.232-0.017-0.414,0.195-0.81
			c0.061-0.098,0.207-0.255,0.432-0.296c0.223-0.037,0.371,0.033,0.458,0.079c0.184,0.104,0.265,0.199,0.353,0.291
			c0.312,0.36,0.498,0.7,0.699,1.05c0.385,0.695,0.714,1.397,1.036,2.104l0.475,1.034c0.082,0.166,0.165,0.332,0.252,0.484
			c0.074,0.14,0.205,0.333,0.223,0.341l-0.053-0.031c-0.026-0.013-0.056-0.021-0.084-0.024c-0.046-0.013-0.143-0.017-0.21,0.011
			c-0.125,0.036-0.21,0.142-0.229,0.18c-0.014,0.013-0.025,0.062-0.024,0.053c0,0,0.011-0.089,0.009-0.161
			c-0.001-0.158-0.016-0.339-0.036-0.52c-0.041-0.363-0.102-0.737-0.167-1.108c-0.132-0.746-0.287-1.493-0.451-2.239
			c-0.659-2.986-1.445-5.954-2.247-8.912c-0.407-1.478-0.828-2.952-1.281-4.411l-0.35-1.09c-0.063-0.207-0.113-0.301-0.191-0.599
			c-0.014-0.065-0.025-0.135-0.029-0.223c0.006-0.09-0.022-0.195,0.103-0.415c0.063-0.11,0.232-0.226,0.36-0.24
			c0.14-0.025,0.22,0,0.282,0.014c0.13,0.038,0.187,0.078,0.254,0.116c0.428,0.299,0.653,0.585,0.93,0.885
			c0.261,0.296,0.51,0.604,0.749,0.901l0.724,0.886c0.231,0.275,0.513,0.608,0.704,0.76c0.005,0.004,0.01,0.007,0,0.001
			c-0.017-0.002-0.029-0.031-0.185-0.025c-0.178,0.002-0.343,0.233-0.33,0.276c-0.014,0.057-0.01,0.065-0.011,0.069
			c0-0.014-0.016-0.103-0.038-0.178c-0.044-0.16-0.107-0.335-0.171-0.508c-0.131-0.348-0.277-0.699-0.427-1.048
			c-0.606-1.396-1.255-2.797-1.916-4.171c-1.32-2.783-2.688-5.501-4.505-7.941c-0.882-1.233-1.908-2.367-2.922-3.513
			c-1.021-1.146-2.098-2.229-3.063-3.479c-1.956-2.447-3.187-5.471-3.627-8.547c-0.249-1.537-0.381-3.069-0.494-4.614
			c-0.097-1.553,0.001-3.175,0.637-4.665c0.327-0.734,0.798-1.429,1.438-1.945c0.629-0.531,1.409-0.85,2.193-1.019
			c1.591-0.305,3.187-0.039,4.682,0.378c1.503,0.438,2.921,1.05,4.32,1.716c1.395,0.667,2.749,1.428,4.04,2.277l1.915,1.274
			c0.635,0.397,1.311,0.763,2.01,0.646c0.705-0.099,1.344-0.532,1.986-0.946l1.957-1.219c0.314-0.207,0.631-0.418,0.82-0.696
			c0.195-0.273,0.221-0.648,0.237-1.021c0.007-0.376-0.004-0.759-0.016-1.143c-0.002-0.187-0.023-0.389,0.025-0.611
			c0.024-0.106,0.068-0.238,0.193-0.331c0.127-0.092,0.272-0.09,0.379-0.075c0.813,0.212,1.436,0.606,2.192,0.726
			c0.733,0.147,1.502,0.073,2.192-0.22c1.396-0.592,2.428-1.817,3.275-3.069C108.842,78.992,109.517,77.62,110.123,76.225z
			 M110.23,76.23c-0.593,1.418-1.256,2.816-2.097,4.112c-0.841,1.274-1.864,2.54-3.323,3.185c-0.722,0.318-1.548,0.409-2.324,0.263
			c-0.776-0.113-1.508-0.529-2.183-0.693c-0.306-0.083-0.279,0.345-0.262,0.725c0.017,0.384,0.034,0.769,0.032,1.161
			c-0.014,0.384-0.027,0.821-0.275,1.193c-0.245,0.363-0.589,0.586-0.907,0.805l-1.94,1.244c-0.633,0.415-1.298,0.9-2.133,1.034
			c-0.862,0.147-1.651-0.284-2.297-0.677c-0.664-0.41-1.291-0.848-1.936-1.26c-1.283-0.83-2.62-1.569-4.001-2.218
			c-1.379-0.645-2.798-1.244-4.25-1.655c-1.451-0.397-2.981-0.627-4.425-0.338c-1.447,0.279-2.652,1.287-3.203,2.652
			c-0.569,1.357-0.663,2.893-0.557,4.391c0.122,1.519,0.266,3.051,0.519,4.546c0.457,3.005,1.644,5.854,3.548,8.209
			c0.921,1.18,2.021,2.276,3.053,3.417c1.03,1.146,2.08,2.289,2.996,3.551c1.879,2.483,3.31,5.282,4.639,8.035
			c0.681,1.391,1.334,2.774,1.962,4.193c0.155,0.356,0.308,0.713,0.45,1.084c0.071,0.187,0.14,0.372,0.2,0.582
			c0.029,0.11,0.061,0.209,0.073,0.387c0,0.052,0.003,0.108-0.023,0.213c0.003,0.089-0.198,0.364-0.425,0.369
			c-0.204,0.012-0.262-0.038-0.322-0.06c-0.054-0.027-0.089-0.051-0.124-0.074c-0.41-0.328-0.608-0.606-0.879-0.909l-0.74-0.894
			c-0.245-0.3-0.481-0.588-0.73-0.866c-0.238-0.266-0.522-0.568-0.73-0.705c-0.016-0.011-0.042-0.021-0.005-0.008
			c0.017,0.001,0.047,0.018,0.14,0.003c0.08-0.01,0.208-0.093,0.245-0.164c0.075-0.137,0.043-0.141,0.051-0.136l0.01,0.062
			c0.017,0.074,0.116,0.337,0.167,0.496l0.362,1.104c0.469,1.472,0.903,2.95,1.322,4.433c0.84,2.966,1.6,5.949,2.27,8.964
			c0.165,0.755,0.322,1.513,0.457,2.28c0.066,0.386,0.129,0.771,0.174,1.171c0.022,0.201,0.04,0.403,0.042,0.63
			c-0.003,0.118,0.003,0.226-0.041,0.411c-0.007,0.039-0.044,0.13-0.075,0.188c-0.042,0.074-0.161,0.228-0.331,0.271
			c-0.091,0.029-0.212,0.032-0.281,0.018c-0.05-0.013-0.102-0.031-0.15-0.054c-0.117-0.058-0.116-0.075-0.169-0.114
			c-0.263-0.258-0.316-0.41-0.435-0.601c-0.103-0.182-0.192-0.359-0.28-0.538l-0.486-1.061c-0.314-0.692-0.639-1.382-0.997-2.032
			c-0.178-0.316-0.375-0.649-0.569-0.869c-0.042-0.05-0.099-0.093-0.083-0.082c0.005,0,0.056,0.036,0.183,0.019
			c0.128-0.024,0.198-0.11,0.208-0.129c0.019-0.059-0.039,0.163-0.034,0.309c-0.019,0.691,0.098,1.441,0.207,2.201l0.277,2.313
			c0.067,0.774,0.097,1.552,0.147,2.327c0.104,3.105-0.099,6.241-0.803,9.284c-0.709,3.041-1.744,6.006-3.568,8.665l-0.749,1.093
			l-0.108-1.348c-0.091-1.141-0.256-2.274-0.588-3.333c-0.335-1.058-0.886-2.006-1.721-2.681c-0.833-0.682-1.899-1.131-2.954-1.679
			c-1.06-0.54-2.099-1.215-2.985-2.051c-0.455-0.415-0.856-0.882-1.229-1.328c-0.181-0.216-0.367-0.431-0.554-0.613
			c-0.091-0.088-0.19-0.174-0.258-0.218c-0.014-0.017-0.077-0.019,0.054-0.004c0.064,0.003,0.188-0.04,0.244-0.112
			c0.049-0.052,0.057-0.099,0.059-0.095c-0.003-0.015-0.007,0.139,0.012,0.252c0.017,0.124,0.04,0.257,0.07,0.392
			c0.058,0.27,0.13,0.546,0.207,0.823l0.489,1.674c0.165,0.563,0.331,1.129,0.468,1.717c0.067,0.297,0.131,0.593,0.163,0.926
			c0.012,0.17,0.03,0.335-0.015,0.573c-0.028,0.116-0.064,0.279-0.242,0.449c-0.21,0.186-0.473,0.177-0.616,0.145
			c-0.517-0.166-0.678-0.394-0.936-0.602c-0.227-0.211-0.445-0.442-0.637-0.652l-1.198-1.265c-0.792-0.844-1.639-1.635-2.493-2.414
			c-0.86-0.771-1.747-1.515-2.669-2.203c-0.904-0.713-1.89-1.293-2.883-1.921c-0.988-0.618-1.98-1.229-2.98-1.823
			s-2.008-1.175-3.028-1.722c-1.019-0.539-2.059-1.074-3.107-1.437c-0.258-0.084-0.523-0.156-0.749-0.18
			c-0.104-0.011-0.212,0.001-0.215,0.007c0.018,0.02,0.081-0.125,0.06-0.067c-0.005,0.102,0.102,0.377,0.228,0.597
			c0.126,0.231,0.281,0.465,0.442,0.693c0.657,0.914,1.433,1.789,2.22,2.616l2.434,2.557l-2.997-1.859
			c-1.399-0.867-2.807-1.727-4.258-2.464c-0.724-0.375-1.461-0.695-2.221-0.952c-0.758-0.259-1.56-0.447-2.367-0.685
			c-3.251-0.949-6.201-2.528-9.158-4.008l-2.2-1.174c-0.726-0.407-1.445-0.831-2.164-1.256c-0.698-0.465-1.417-0.892-2.078-1.422
			c-0.34-0.249-0.673-0.507-0.983-0.798c-0.318-0.279-0.636-0.558-0.923-0.872c-0.61-0.599-1.118-1.246-1.67-1.849
			c-0.274-0.292-0.556-0.58-0.859-0.817c-0.295-0.238-0.636-0.447-0.913-0.476c-0.507-0.12-0.762,0.841-0.815,1.582
			c-0.064,0.787-0.028,1.613,0.062,2.406l0.087,0.774l-0.594-0.469c-0.434-0.342-0.885-0.666-1.282-1.049
			c-0.42-0.359-0.79-0.768-1.174-1.161c-0.355-0.418-0.732-0.82-1.054-1.265c-0.339-0.431-0.657-0.877-0.958-1.334
			c-0.609-0.909-1.156-1.857-1.644-2.834c-0.502-0.971-0.922-1.979-1.32-2.994c-0.376-1.022-0.728-2.057-1.002-3.111
			c-0.296-1.053-0.502-2.13-0.69-3.193c-0.086-0.525-0.201-1.046-0.36-1.539c-0.144-0.466-0.425-1.024-0.715-1.051
			c-0.304-0.019-0.702,0.466-0.955,0.883c-0.271,0.439-0.503,0.926-0.694,1.409l-0.331,0.833l-0.144-0.879
			c-0.151-0.93-0.209-1.881-0.142-2.824c0.064-0.944,0.249-1.873,0.497-2.776c0.499-1.809,1.228-3.522,1.938-5.234
			c0.708-1.709,1.5-3.398,2.153-5.109c0.157-0.431,0.302-0.865,0.407-1.302c0.051-0.219,0.094-0.438,0.105-0.649
			c0.02-0.206-0.022-0.432-0.095-0.475c-0.053-0.059-0.272-0.023-0.457,0.067c-0.191,0.088-0.379,0.209-0.562,0.339
			c-0.363,0.261-0.712,0.563-1.035,0.876l-0.944,0.915l0.64-1.15c0.646-1.16,1.056-2.471,1.426-3.772
			c0.356-1.311,0.673-2.634,0.953-3.967c0.569-2.664,1.042-5.351,1.516-8.037l1.391-8.067c0.237-1.34,0.467-2.686,0.547-4.031
			c0.018-0.335,0.023-0.671-0.008-0.994c-0.02-0.317-0.151-0.67-0.259-0.563c-0.217,0.089-0.454,0.375-0.643,0.63
			c-0.195,0.266-0.375,0.553-0.536,0.84l-0.651,1.165l0.292-1.3c0.828-3.678,1.975-7.297,3.6-10.715
			c0.408-0.854,0.848-1.692,1.332-2.507c0.475-0.815,1.017-1.618,1.573-2.366c0.284-0.386,0.56-0.746,0.802-1.139
			c0.238-0.386,0.471-0.791,0.578-1.196c0.114-0.433,0.044-0.712-0.343-0.782c-0.375-0.078-0.851-0.004-1.26,0.108l-0.555,0.153
			l0.243-0.514c0.784-1.663,1.945-3.08,3.176-4.386c1.237-1.308,2.579-2.502,3.927-3.674c0.672-0.586,1.353-1.165,1.995-1.765
			c0.313-0.297,0.64-0.618,0.84-0.925c0.008-0.024,0.022-0.034,0.039-0.064l0.055-0.081c0,0.007,0.036-0.073,0.036,0.005v-0.024
			c0-0.078-0.053-0.065-0.015-0.034c0.048-0.003-0.226,0-0.4,0.072c-0.194,0.061-0.402,0.146-0.617,0.229
			c-0.11,0.041-0.219,0.084-0.369,0.118c-0.087-0.01-0.138,0.099-0.437-0.081c-0.147-0.142-0.126-0.297-0.12-0.356
			c0.012-0.072,0.029-0.121,0.045-0.154c0.256-0.515,0.637-0.812,0.975-1.107c0.699-0.589,1.425-1.111,2.155-1.633
			c1.463-1.033,2.948-2.024,4.431-3.017l2.218-1.491c0.74-0.505,1.486-0.985,2.113-1.559c1.292-1.147,2.268-2.637,3.178-4.143
			c0.899-1.521,1.709-3.107,2.521-4.692c1.619-3.18,3.203-6.372,4.953-9.509c0.446-0.78,0.911-1.553,1.423-2.305
			c0.529-0.744,1.042-1.499,1.876-2.107c0.219-0.142,0.469-0.285,0.803-0.324c0.333-0.053,0.716,0.09,0.946,0.297
			c0.457,0.423,0.616,0.898,0.778,1.345c0.291,0.905,0.427,1.803,0.549,2.7c0.245,1.795,0.295,3.587,0.524,5.321
			c0.112,0.872,0.269,1.733,0.493,2.567c0.222,0.829,0.525,1.647,1.006,2.286c0.477,0.646,1.149,1.022,1.97,1.09l0.327,0.031
			c0.117,0.007,0.132,0.008,0.226-0.009c0.153-0.021,0.339-0.1,0.517-0.183c0.361-0.178,0.72-0.417,1.068-0.67
			c1.39-1.039,2.665-2.29,3.911-3.548c1.244-1.266,2.45-2.575,3.64-3.898l1.782-1.997c0.302-0.333,0.6-0.666,0.941-0.993
			c0.088-0.082,0.175-0.164,0.284-0.245c0.118-0.076,0.206-0.18,0.49-0.222c0.14-0.027,0.354,0.06,0.441,0.16
			c0.098,0.1,0.135,0.185,0.168,0.255c0.061,0.145,0.092,0.265,0.12,0.38c0.106,0.457,0.185,0.874,0.305,1.289
			c0.129,0.44,0.21,0.931,0.25,1.38c0.086,0.916,0.077,1.817,0.053,2.718c-0.055,1.801-0.23,3.588-0.482,5.367
			c-0.26,1.764-0.592,3.572-1.186,5.272c-0.262,0.847-0.677,1.694-0.476,2.406c0.215,0.74,0.804,1.466,1.311,2.176
			c2.14,2.848,4.309,5.687,6.365,8.614c1.023,1.467,2.015,2.959,2.919,4.51c0.893,1.554,1.735,3.159,2.259,4.906
			c0.26,0.859,0.427,1.808,0.374,2.72c-0.047,0.879-0.027,1.76,0.082,2.628c0.109,0.868,0.321,1.716,0.637,2.536
			c0.154,0.412,0.333,0.816,0.505,1.233c0.085,0.208,0.167,0.421,0.243,0.644l0.098,0.322c0.029,0.096,0.059,0.155,0.12,0.249
			c1.036,1.368,2.429,2.559,3.718,3.767c1.318,1.198,2.661,2.372,4.011,3.537c2.704,2.326,5.44,4.616,8.197,6.878l0.029,0.024
			L110.23,76.23z"/>
	</g>
</g>
<g>
	<path d="M140.416,117.946c-1.014,0.8-1.94,1.374-2.78,1.72c-0.84,0.348-1.754,0.52-2.74,0.52c-1.333,0-2.547-0.272-3.64-0.819
		c-1.094-0.546-2.034-1.306-2.82-2.28c-0.787-0.973-1.4-2.14-1.84-3.5c-0.44-1.359-0.66-2.854-0.66-4.48
		c0-1.76,0.247-3.406,0.74-4.939c0.493-1.533,1.173-2.88,2.04-4.04c0.866-1.159,1.873-2.073,3.02-2.739c1.146-0.667,2.373-1,3.68-1
		c1.946,0,3.613,0.813,5,2.439v-2h5.68v12.88c0,2.374-0.033,4.387-0.1,6.04c-0.066,1.654-0.167,2.96-0.3,3.92
		c-0.4,2.826-1.474,4.993-3.22,6.5c-1.747,1.506-4.047,2.26-6.9,2.26c-1.2,0-2.34-0.133-3.42-0.4
		c-1.08-0.266-2.074-0.652-2.98-1.159v-4.92c1.946,0.985,3.893,1.479,5.84,1.479c1.76,0,3.1-0.373,4.02-1.119
		c0.92-0.748,1.38-1.813,1.38-3.201V117.946z M133.576,106.307c0,1.094,0.293,1.973,0.88,2.64c0.586,0.667,1.36,1,2.32,1
		c0.506,0,0.98-0.101,1.42-0.3c0.44-0.2,0.826-0.474,1.16-0.82c0.333-0.346,0.593-0.754,0.78-1.221c0.186-0.466,0.28-0.966,0.28-1.5
		c0-0.506-0.087-0.986-0.26-1.439c-0.174-0.453-0.42-0.846-0.74-1.18c-0.32-0.334-0.694-0.594-1.12-0.78
		c-0.427-0.187-0.88-0.28-1.36-0.28c-0.96,0-1.76,0.36-2.4,1.08C133.896,104.227,133.576,105.16,133.576,106.307z"/>
	<path d="M167.416,120.746h-5.48v-1.96c-0.96,0.774-1.974,1.366-3.04,1.78c-1.066,0.412-2.106,0.619-3.12,0.619
		c-1.2,0-2.307-0.293-3.32-0.879c-1.014-0.587-1.887-1.406-2.619-2.461c-0.734-1.053-1.314-2.313-1.74-3.779
		c-0.427-1.467-0.641-3.066-0.641-4.801c0-1.813,0.227-3.506,0.681-5.08c0.453-1.572,1.073-2.939,1.86-4.1
		c0.785-1.16,1.72-2.066,2.8-2.72s2.246-0.979,3.5-0.979c1.093,0,2.133,0.232,3.12,0.699c0.986,0.467,1.826,1.047,2.52,1.74v-2h5.68
		L167.416,120.746z M155.096,106.307c0,1.094,0.3,1.973,0.9,2.64c0.6,0.667,1.366,1,2.3,1c1.013,0,1.873-0.36,2.58-1.08
		c0.706-0.72,1.06-1.64,1.06-2.761c0-0.506-0.087-0.986-0.26-1.439c-0.174-0.453-0.42-0.846-0.74-1.18s-0.693-0.594-1.12-0.78
		s-0.88-0.28-1.359-0.28c-0.96,0-1.761,0.36-2.4,1.08C155.416,104.227,155.096,105.16,155.096,106.307z"/>
	<path d="M175.335,96.826v2.12c0.533-0.854,1.246-1.493,2.141-1.921c0.893-0.426,1.846-0.639,2.859-0.639
		c0.96,0,1.84,0.206,2.641,0.619c0.8,0.414,1.413,1.074,1.84,1.98c0.479-0.854,1.206-1.5,2.18-1.94s2.033-0.659,3.18-0.659
		c1.733,0,3.061,0.553,3.98,1.659s1.38,2.968,1.38,5.58v17.12h-5.88v-12.279c0-0.986-0.207-1.701-0.62-2.141
		c-0.414-0.439-0.887-0.66-1.42-0.66c-0.534,0-1.027,0.221-1.48,0.66s-0.68,1.047-0.68,1.82v12.6h-5.88v-11.8
		c0-1.04-0.233-1.8-0.7-2.28s-0.967-0.72-1.5-0.72s-1.007,0.233-1.42,0.7c-0.414,0.467-0.62,1.086-0.62,1.859v12.24h-5.8
		c0-0.8,0-1.693,0-2.68s0.006-1.986,0.02-3s0.021-1.98,0.021-2.9s0-1.727,0-2.42c0-0.666,0-1.526,0-2.58
		c0-1.053-0.007-2.18-0.021-3.38s-0.02-2.406-0.02-3.62c0-1.213,0-2.326,0-3.34H175.335z"/>
	<path d="M205.655,108.146c0.346,1.146,0.92,2.08,1.72,2.8s1.906,1.079,3.32,1.079c0.426,0,0.886-0.032,1.38-0.1
		c0.493-0.066,0.979-0.16,1.46-0.279c0.479-0.121,0.933-0.254,1.36-0.4c0.426-0.146,0.8-0.286,1.119-0.42
		c0.054,0.773,0.087,1.594,0.101,2.46c0.013,0.866,0.02,1.728,0.02,2.58c0,1.413-0.04,2.68-0.12,3.8c-2.079,1.014-4.413,1.52-7,1.52
		c-1.199,0-2.413-0.133-3.64-0.399s-2.414-0.772-3.56-1.521c-1.014-0.666-1.848-1.445-2.5-2.34c-0.654-0.893-1.167-1.813-1.54-2.76
		c-0.374-0.946-0.627-1.873-0.761-2.779s-0.199-1.721-0.199-2.44c0-1.066,0.126-2.181,0.38-3.341
		c0.253-1.159,0.646-2.266,1.18-3.319s1.213-2.021,2.04-2.899c0.826-0.881,1.8-1.574,2.92-2.08c1.36-0.613,2.8-0.92,4.32-0.92
		c1.6,0,3.04,0.319,4.319,0.959c1.28,0.641,2.32,1.521,3.12,2.641c0.773,1.066,1.261,2.254,1.46,3.56
		c0.2,1.308,0.301,2.841,0.301,4.601H205.655z M207.936,100.706c-0.561,0-1.094,0.233-1.601,0.7s-0.84,1.287-1,2.46h5.24
		c-0.107-1.066-0.42-1.86-0.94-2.38C209.115,100.967,208.548,100.706,207.936,100.706z"/>
</g>
<g>
</g>
<g>
</g>
<g>
</g>
<g>
</g>
<g>
</g>
<g>
</g>
<g>
</g>
<g>
</g>
<g>
</g>
<g>
</g>
<g>
</g>
<g>
</g>
<g>
</g>
<g>
</g>
<g>
</g>
</svg>
