<svg xmlns="http://www.w3.org/2000/svg" version="1.1" xmlns:xlink="http://www.w3.org/1999/xlink" xmlns:svgjs="http://svgjs.com/svgjs" width="1920" height="1080" preserveAspectRatio="none" viewBox="0 0 1920 1080"><g mask="url(&quot;#SvgjsMask2355&quot;)" fill="none"><rect width="1920" height="1080" x="0" y="0" fill="url(#SvgjsLinearGradient2356)"></rect><path d="M126 1080L1206 0L1791 0L711 1080z" fill="url(#SvgjsLinearGradient2357)"></path><path d="M657.6 1080L1737.6 0L1862.1 0L782.1 1080z" fill="url(#SvgjsLinearGradient2357)"></path><path d="M1817 1080L737 0L632 0L1712 1080z" fill="url(#SvgjsLinearGradient2358)"></path><path d="M1220.4 1080L140.4000000000001 0L-243.5999999999999 0L836.4000000000001 1080z" fill="url(#SvgjsLinearGradient2358)"></path><path d="M889.1230340595455 1080L1920 49.12303405954549L1920 1080z" fill="url(#SvgjsLinearGradient2357)"></path><path d="M0 1080L1030.8769659404545 1080L 0 49.12303405954549z" fill="url(#SvgjsLinearGradient2358)"></path></g><defs><mask id="SvgjsMask2355"><rect width="1920" height="1080" fill="#ffffff"></rect></mask><linearGradient x1="0%" y1="50%" x2="100%" y2="50%" gradientUnits="userSpaceOnUse" id="SvgjsLinearGradient2356"><stop stop-color="rgba(255, 255, 255, 1)" offset="0"></stop><stop stop-color="rgba(255, 255, 255, 1)" offset="1"></stop></linearGradient><linearGradient x1="0%" y1="100%" x2="100%" y2="0%" id="SvgjsLinearGradient2357"><stop stop-color="rgba(68, 5, 114, 0.3)" offset="0"></stop><stop stop-opacity="0" stop-color="rgba(68, 5, 114, 0.3)" offset="0.66"></stop></linearGradient><linearGradient x1="100%" y1="100%" x2="0%" y2="0%" id="SvgjsLinearGradient2358"><stop stop-color="rgba(68, 5, 114, 0.3)" offset="0"></stop><stop stop-opacity="0" stop-color="rgba(68, 5, 114, 0.3)" offset="0.66"></stop></linearGradient></defs></svg>